<?xml version="1.0" encoding="UTF-8" standalone="no"?>
<!-- Created with Inkscape (http://www.inkscape.org/) -->

<svg
   xmlns:dc="http://purl.org/dc/elements/1.1/"
   xmlns:cc="http://creativecommons.org/ns#"
   xmlns:rdf="http://www.w3.org/1999/02/22-rdf-syntax-ns#"
   xmlns:svg="http://www.w3.org/2000/svg"
   xmlns="http://www.w3.org/2000/svg"
   xmlns:sodipodi="http://sodipodi.sourceforge.net/DTD/sodipodi-0.dtd"
   xmlns:inkscape="http://www.inkscape.org/namespaces/inkscape"
   width="256.09741mm"
   height="198.54921mm"
   viewBox="0 0 256.09742 198.54921"
   version="1.1"
   id="svg870"
   inkscape:version="0.92.2 (5c3e80d, 2017-08-06)"
   sodipodi:docname="OctahedronHolder.svg">
  <defs
     id="defs864" />
  <sodipodi:namedview
     id="base"
     pagecolor="#ffffff"
     bordercolor="#666666"
     borderopacity="1.0"
     inkscape:pageopacity="0.0"
     inkscape:pageshadow="2"
     inkscape:zoom="0.38190358"
     inkscape:cx="511.12034"
     inkscape:cy="409.82623"
     inkscape:document-units="mm"
     inkscape:current-layer="layer1"
     showgrid="false"
     inkscape:measure-start="441.898,1848.92"
     inkscape:measure-end="649.228,1848.92"
     inkscape:window-width="1280"
     inkscape:window-height="971"
     inkscape:window-x="1912"
     inkscape:window-y="-8"
     inkscape:window-maximized="1"
     showguides="true"
     inkscape:guide-bbox="true"
     inkscape:snap-midpoints="true"
     fit-margin-top="0"
     fit-margin-left="0"
     fit-margin-right="0"
     fit-margin-bottom="0" />
  <metadata
     id="metadata867">
    <rdf:RDF>
      <cc:Work
         rdf:about="">
        <dc:format>image/svg+xml</dc:format>
        <dc:type
           rdf:resource="http://purl.org/dc/dcmitype/StillImage" />
        <dc:title />
      </cc:Work>
    </rdf:RDF>
  </metadata>
  <g
     inkscape:label="Layer 1"
     inkscape:groupmode="layer"
     id="layer1"
     transform="translate(-13.078769,201.55645)">
    <path
       style="opacity:1;vector-effect:none;fill:#15d00e;fill-opacity:0.00502445;fill-rule:evenodd;stroke:#000000;stroke-width:0.09999997;stroke-linecap:round;stroke-linejoin:round;stroke-miterlimit:4;stroke-dasharray:none;stroke-dashoffset:0;stroke-opacity:1"
       d="m 174.35224,-196.21475 c -4.76433,-1.9e-4 -8.57467,3.8101 -8.57467,8.54314 v 40.49211 h -3.20032 v 5.8999 h 3.20032 v 2.80654 h 4.65759 c 0.84169,0.0265 0.40934,-0.0511 0.94208,-0.67748 v -0.62218 h 2.70007 v 0.64957 c -0.0521,0.70204 0.006,0.65009 0.66302,0.65009 h 3.64318 c 1.03566,-0.007 1.42645,0.33639 1.29397,0.7798 v 1.72185 c -0.2612,0.5743 -0.56907,0.59842 -1.29397,0.59842 h -3.51039 c -0.76496,-0.0364 -0.79581,-0.0852 -0.79581,0.65009 v 0.65009 h -2.70007 v -0.57361 c 0.0244,-0.66522 0.10165,-0.72657 -0.54468,-0.72657 h -5.05499 v 2.80603 h -3.20032 v 5.8999 h 3.20032 v 2.79362 c 0,4.73304 3.81016,5.89732 8.54316,5.89732 h 82.29107 c 4.733,0 8.54316,-1.16428 8.54316,-5.89732 v -2.79362 h 3.19979 v -5.8999 h -3.19979 v -2.80603 h -5.0555 c -0.64632,0 -0.56856,0.0614 -0.54417,0.72657 v 0.57361 h -2.70007 v -0.65009 c 0,-0.7353 -0.0308,-0.68647 -0.79584,-0.65009 h -3.51036 c -0.7249,0 -1.03277,-0.0241 -1.294,-0.59842 v -1.72185 c -0.13245,-0.44341 0.25834,-0.78679 1.294,-0.7798 h 3.64265 c 0.65723,0 0.71565,0.052 0.66355,-0.65009 v -0.64957 h 2.70007 v 0.62218 c 0,0.82227 0.0999,0.70388 0.94155,0.67748 h 4.65812 v -2.80654 h 3.19979 v -5.8999 h -3.19979 v -40.49211 c 0,-4.73304 -3.81034,-8.54326 -8.57467,-8.53953 h -0.57052 l -34.59374,24.43934 v 3.76669 c 0,2.64199 -2.12722,4.7687 -4.76922,4.7687 h -2.36212 c -2.642,0 -4.76872,-2.12671 -4.76872,-4.7687 v -3.76669 l -34.5984,-24.44295 z"
       id="rect6149"
       inkscape:connector-curvature="0"
       sodipodi:nodetypes="csccccccccccscccscscccscccccsssscccccscccscscccscccsccccccscccssssccc" />
    <path
       id="path6332"
       d="m 18.392744,-53.802377 v 5.89989 h 3.10007 v 2.80654 h 5.15525 c 0.64632,0 0.56853,-0.0614 0.544141,-0.726569 v -0.573591 h 2.7006 v 0.65008 c 0,0.73527 0.0303,0.686491 0.795309,0.65008 h 3.51039 c 0.7249,0 1.03277,0.0236 1.29397,0.5979 v 1.72239 c 0.13248,0.44336 -0.25831,0.78679 -1.29397,0.77978 h -3.64268 c -0.65723,0 -0.71512,-0.0524 -0.66302,0.64958 v 0.65008 h -2.7006 v -0.62217 c 0,-0.82227 -0.0999,-0.7039 -0.94155,-0.67749 h -4.75784 v 2.80604 h -3.10007 v 5.90042 h 5.21674 97.260716 3.10007 v -5.90042 h -3.10007 v -2.80604 h -4.75784 c -0.84169,-0.0264 -0.94207,-0.14478 -0.94207,0.67749 v 0.62217 h -2.70009 v -0.65008 c 0.0521,-0.70202 -0.006,-0.64958 -0.66301,-0.64958 H 108.164 c -1.03565,0.007 -1.42644,-0.33645 -1.29396,-0.77978 v -1.72239 c 0.2612,-0.5743 0.56906,-0.5979 1.29396,-0.5979 h 3.5109 c 0.76497,0.0364 0.7953,0.0852 0.7953,-0.65008 v -0.65008 h 2.70009 v 0.573591 c -0.0244,0.665209 -0.10166,0.726569 0.54467,0.726569 h 5.15524 v -2.80654 h 3.10007 v -5.89989 h -3.10007 -1.5875 -95.673216 -2.11667 z"
       style="opacity:1;vector-effect:none;fill:#15d00e;fill-opacity:0.00502445;fill-rule:evenodd;stroke:#000000;stroke-width:0.1;stroke-linecap:round;stroke-linejoin:round;stroke-miterlimit:4;stroke-dasharray:none;stroke-dashoffset:0;stroke-opacity:1"
       inkscape:connector-curvature="0"
       sodipodi:nodetypes="ccccscccscscccscccsccccccccccccscccscccscscccsccccccccc" />
    <path
       sodipodi:nodetypes="scscsccccccccccscscsccccccccccscscsccccccccccscscsccccccccccssssssscs"
       d="m 138.72135,-70.679731 c 0,-0.85604 0.69396,-1.55 1.55,-1.55 0.85604,1e-5 1.54999,0.69396 1.54999,1.55 0,0.85604 -0.69395,1.549989 -1.54999,1.549999 -0.85604,0 -1.55,-0.693959 -1.55,-1.549999 z m -2.80632,1.549989 h -5.9 v -3.099999 h 5.9 z m 14.61263,0 h -5.9 v -3.099999 h 5.9 z M 32.297709,-70.679731 c 0,-0.85604 0.69396,-1.55 1.55,-1.55 0.85604,1e-5 1.54999,0.69396 1.54999,1.55 0,0.85604 -0.69395,1.549989 -1.54999,1.549999 -0.85604,0 -1.55,-0.693959 -1.55,-1.549999 z m -2.80632,1.549989 h -5.9 v -3.099999 h 5.9 z m 14.61263,0 h -5.9 v -3.099999 h 5.9 z M 144.23543,-110.02243 c 0.69895,-0.49424 0.86489,-1.46151 0.37065,-2.16046 -0.49424,-0.69895 -1.46151,-0.8649 -2.16046,-0.37066 -0.69895,0.49424 -0.8649,1.46152 -0.37066,2.16047 0.49425,0.69895 1.46152,0.8649 2.16047,0.37065 z m 0.3547,3.18623 3.40641,4.81729 2.53112,-1.78981 -3.40641,-4.81729 z m -8.43674,-11.93107 3.40642,4.81729 2.53112,-1.78981 -3.40642,-4.8173 z m -106.269781,8.74484 c -0.69894,-0.49424 -0.86489,-1.46151 -0.37065,-2.16046 0.49424,-0.69895 1.46151,-0.8649 2.16046,-0.37066 0.69896,0.49424 0.86491,1.46152 0.37066,2.16047 -0.49424,0.69895 -1.46152,0.8649 -2.16047,0.37065 z m -0.3547,3.18623 -3.40641,4.81729 -2.53112,-1.78981 3.40641,-4.81729 z m 8.43674,-11.93107 -3.40642,4.81729 -2.53112,-1.78981 3.40642,-4.8173 z m -14.83687,-9.41309 H 150.99026 c 5.54,0 10.00001,4.46 10.00001,10.00001 v 49.092688 c 0,5.54 -4.46001,10.00001 -10.00001,10.00001 H 23.128779 c -5.54001,0 -10.00001,-4.46001 -10.00001,-10.00001 v -49.092688 c 0,-5.54001 4.46,-10.00001 10.00001,-10.00001 z"
       style="opacity:1;vector-effect:none;fill:#15d00e;fill-opacity:0.00502445;fill-rule:evenodd;stroke:#000000;stroke-width:0.1;stroke-linecap:round;stroke-linejoin:round;stroke-miterlimit:4;stroke-dasharray:none;stroke-dashoffset:0;stroke-opacity:1"
       id="path1442"
       inkscape:connector-curvature="0" />
    <path
       inkscape:connector-curvature="0"
       id="path1450"
       style="opacity:1;vector-effect:none;fill:#15d00e;fill-opacity:0.00502445;fill-rule:evenodd;stroke:#000000;stroke-width:0.1;stroke-linecap:round;stroke-linejoin:round;stroke-miterlimit:4;stroke-dasharray:none;stroke-dashoffset:0;stroke-opacity:1"
       d="m 138.72135,-144.0058 c 0,-0.85604 0.69396,-1.55 1.55,-1.55 0.85604,1e-5 1.54999,0.69396 1.54999,1.55 0,0.85604 -0.69395,1.54999 -1.54999,1.55 -0.85604,0 -1.55,-0.69396 -1.55,-1.55 z m -2.80632,1.54999 h -5.9 v -3.1 h 5.9 z m 14.61263,0 h -5.9 v -3.1 h 5.9 z M 32.29771,-144.0058 c 0,-0.85604 0.69396,-1.55 1.55,-1.55 0.85604,1e-5 1.54999,0.69396 1.54999,1.55 0,0.85604 -0.69395,1.54999 -1.54999,1.55 -0.85604,0 -1.55,-0.69396 -1.55,-1.55 z m -2.80632,1.54999 h -5.9 v -3.1 h 5.9 z m 14.61263,0 h -5.9 v -3.1 h 5.9 z m 100.13141,-40.89271 c 0.69895,-0.49424 0.86489,-1.46151 0.37065,-2.16046 -0.49424,-0.69895 -1.46151,-0.8649 -2.16046,-0.37066 -0.69895,0.49424 -0.8649,1.46152 -0.37066,2.16047 0.49425,0.69895 1.46152,0.8649 2.16047,0.37065 z m 0.3547,3.18623 3.40641,4.81729 2.53112,-1.78981 -3.40641,-4.81729 z m -8.43674,-11.93107 3.40642,4.81729 2.53112,-1.78981 -3.40642,-4.8173 z m -106.26978,8.74484 c -0.69894,-0.49424 -0.86489,-1.46151 -0.37065,-2.16046 0.49424,-0.69895 1.46151,-0.8649 2.16046,-0.37066 0.69896,0.49424 0.86491,1.46152 0.37066,2.16047 -0.49424,0.69895 -1.46152,0.8649 -2.16047,0.37065 z m -0.3547,3.18623 -3.40641,4.81729 -2.53112,-1.78981 3.40641,-4.81729 z m 8.43674,-11.93107 -3.40642,4.81729 -2.53112,-1.78981 3.40642,-4.8173 z m -14.83687,59.67964 c -5.54001,0 -10.00001,-4.46001 -10.00001,-10.00001 v -49.09271 c 0,-5.54001 4.46,-10.00001 10.00001,-10.00001 h 127.86148 c 5.54,0 10.00001,4.46 10.00001,10.00001 v 49.09271 c 0,5.54 -4.46001,10.00001 -10.00001,10.00001 z"
       sodipodi:nodetypes="scscsccccccccccscscsccccccccccscscsccccccccccscscscccccccccccscsssscc" />
    <path
       sodipodi:nodetypes="cscccccscccscscccscccsccccccscccsssscccsccccccccccscccscscccscccccscc"
       inkscape:connector-curvature="0"
       id="path1452"
       d="m 174.32073,-115.33027 c -4.733,0 -8.54316,1.16428 -8.54316,5.89732 v 2.79363 h -3.19979 v 5.89989 h 3.19979 v 2.806018 h 5.0555 c 0.64632,0 0.56856,-0.0614 0.54417,-0.726567 v -0.573607 h 2.70007 v 0.650087 c 0,0.735294 0.0308,0.686467 0.79584,0.650087 h 3.51036 c 0.7249,0 1.03277,0.0241 1.294,0.598414 v 1.721851 c 0.13245,0.443407 -0.25834,0.786777 -1.294,0.779787 h -3.64265 c -0.65723,0 -0.71565,-0.052 -0.66355,0.650087 v 0.649574 h -2.70007 v -0.622187 c 0,-0.822264 -0.0999,-0.703874 -0.94155,-0.677474 h -4.65812 v 2.806532 h -3.19979 v 5.899883 h 3.19979 v 40.49211 c 0,4.73304 3.81034,8.54326 8.57467,8.53953 h 0.57052 l 34.59374,-24.43934 v -3.76669 c 0,-2.64199 2.12722,-4.7687 4.76922,-4.7687 h 2.36212 c 2.642,0 4.76872,2.12671 4.76872,4.7687 v 3.76669 l 34.5984,24.44295 h 0.56533 c 4.76433,1.9e-4 8.57467,-3.8101 8.57467,-8.54314 v -40.49211 h 3.20032 v -5.899883 h -3.20032 v -2.806532 h -4.65759 c -0.84169,-0.0265 -0.40934,0.0511 -0.94208,0.677474 v 0.622187 h -2.70007 v -0.649574 c 0.0521,-0.702037 -0.006,-0.650087 -0.66302,-0.650087 h -3.64318 c -1.03566,0.007 -1.42645,-0.33638 -1.29397,-0.779787 v -1.721851 c 0.2612,-0.574294 0.56907,-0.598414 1.29397,-0.598414 h 3.51039 c 0.76496,0.0364 0.79581,0.0852 0.79581,-0.650087 v -0.650087 h 2.70007 v 0.573607 c -0.0244,0.665217 -0.10165,0.726567 0.54468,0.726567 h 5.05499 v -2.806018 h 3.20032 v -5.89989 h -3.20032 v -2.79363 c 0,-4.73304 -3.81016,-5.89732 -8.54316,-5.89732 z"
       style="opacity:1;vector-effect:none;fill:#15d00e;fill-opacity:0.00502445;fill-rule:evenodd;stroke:#000000;stroke-width:0.09999997;stroke-linecap:round;stroke-linejoin:round;stroke-miterlimit:4;stroke-dasharray:none;stroke-dashoffset:0;stroke-opacity:1" />
    <path
       sodipodi:nodetypes="ccccccscccscscccscccsccccccccccccscccscccscscccsccccccc"
       inkscape:connector-curvature="0"
       style="opacity:1;vector-effect:none;fill:#15d00e;fill-opacity:0.00502445;fill-rule:evenodd;stroke:#000000;stroke-width:0.1;stroke-linecap:round;stroke-linejoin:round;stroke-miterlimit:4;stroke-dasharray:none;stroke-dashoffset:0;stroke-opacity:1"
       d="m 24.403232,-29.585248 h -2.11667 l -3.10007,-1e-6 v 5.89989 h 3.10007 v 2.80654 h 5.15525 c 0.64632,0 0.56853,-0.0614 0.54414,-0.72657 v -0.57359 h 2.700601 v 0.65008 c 0,0.73527 0.0303,0.68649 0.795309,0.65008 h 3.51039 c 0.7249,0 1.03277,0.0236 1.29397,0.5979 v 1.72239 c 0.13248,0.44336 -0.25831,0.78679 -1.29397,0.77978 h -3.64268 c -0.65723,0 -0.71512,-0.0524 -0.66302,0.64958 v 0.650081 h -2.7006 v -0.62217 c 0,-0.82227 -0.0999,-0.7039 -0.94155,-0.67749 h -4.75784 v 2.80604 h -3.10007 v 5.9004194 h 5.21674 97.260718 3.10007 v -5.9004194 h -3.10007 v -2.80604 h -4.75784 c -0.84169,-0.0264 -0.94207,-0.14478 -0.94207,0.67749 v 0.62217 h -2.70009 v -0.65008 c 0.0521,-0.70202 -0.006,-0.64958 -0.66301,-0.64958 h -3.64319 c -1.03565,0.007 -1.42644,-0.33645 -1.29396,-0.77978 v -1.72239 c 0.2612,-0.5743 0.56906,-0.5979 1.29396,-0.5979 h 3.5109 c 0.76497,0.0364 0.7953,0.0852 0.7953,-0.65008 v -0.650081 h 2.70009 v 0.573591 c -0.0244,0.66521 -0.10166,0.72657 0.54467,0.72657 h 5.15524 v -2.80654 h 3.10007 v -5.89989 h -3.10007 -1.5875 z"
       id="path1454" />
    <text
       xml:space="preserve"
       style="font-style:normal;font-variant:normal;font-weight:normal;font-stretch:normal;font-size:8.46666622px;line-height:1.25;font-family:Arial;-inkscape-font-specification:Arial;letter-spacing:0px;word-spacing:0px;fill:#000000;fill-opacity:1;stroke:none;stroke-width:0.26458332"
       x="29.706003"
       y="-212.92606"
       id="text820"><tspan
         sodipodi:role="line"
         id="tspan818"
         x="29.706003"
         y="-212.92606"
         style="stroke-width:0.26458332">Cut from 1/8&quot; Clear Acrylic. Connect with M3 12mm Screws</tspan></text>
  </g>
</svg>
