<?xml version="1.0" encoding="UTF-8" standalone="no"?>
<!-- Created with Inkscape (http://www.inkscape.org/) -->

<svg
   xmlns:dc="http://purl.org/dc/elements/1.1/"
   xmlns:cc="http://creativecommons.org/ns#"
   xmlns:rdf="http://www.w3.org/1999/02/22-rdf-syntax-ns#"
   xmlns:svg="http://www.w3.org/2000/svg"
   xmlns="http://www.w3.org/2000/svg"
   xmlns:sodipodi="http://sodipodi.sourceforge.net/DTD/sodipodi-0.dtd"
   xmlns:inkscape="http://www.inkscape.org/namespaces/inkscape"
   width="82.507217mm"
   height="60.465736mm"
   viewBox="0 0 82.507217 60.465736"
   version="1.1"
   id="svg2347"
   inkscape:version="0.92.2 (5c3e80d, 2017-08-06)"
   sodipodi:docname="OctahedronV2ClearConnectors.svg">
  <defs
     id="defs2341" />
  <sodipodi:namedview
     id="base"
     pagecolor="#ffffff"
     bordercolor="#666666"
     borderopacity="1.0"
     inkscape:pageopacity="0.0"
     inkscape:pageshadow="2"
     inkscape:zoom="0.82850265"
     inkscape:cx="208.71569"
     inkscape:cy="12.885894"
     inkscape:document-units="mm"
     inkscape:current-layer="layer1"
     showgrid="false"
     fit-margin-top="0"
     fit-margin-left="0"
     fit-margin-right="0"
     fit-margin-bottom="0"
     inkscape:window-width="1280"
     inkscape:window-height="971"
     inkscape:window-x="1912"
     inkscape:window-y="-8"
     inkscape:window-maximized="1" />
  <metadata
     id="metadata2344">
    <rdf:RDF>
      <cc:Work
         rdf:about="">
        <dc:format>image/svg+xml</dc:format>
        <dc:type
           rdf:resource="http://purl.org/dc/dcmitype/StillImage" />
        <dc:title></dc:title>
      </cc:Work>
    </rdf:RDF>
  </metadata>
  <g
     inkscape:label="Layer 1"
     inkscape:groupmode="layer"
     id="layer1"
     transform="translate(-5.673372,-91.776991)">
    <path
       style="opacity:1;vector-effect:none;fill:none;fill-opacity:1;fill-rule:nonzero;stroke:#0000ff;stroke-width:0.09999996;stroke-linecap:round;stroke-linejoin:round;stroke-miterlimit:4;stroke-dasharray:none;stroke-dashoffset:0;stroke-opacity:1"
       d="m 16.49175,109.75027 c 0,0 -0.55658,1.1511 -1.45778,0.5303 l -1.7503,-1.2056 c -1.80126,-1.2033 -4.68032,-2.911 -6.77836,0.083 -2.09804,2.9941 0.48967,5.1175 2.25306,6.3531 l 1.82921,1.2822 c 0.79414,0.4664 0.17013,1.2072 0.17013,1.2072 l -2.12368,3.0556 1.65573,0.4188 c 2.19578,-2.5917 5.4934,-3.8231 8.39428,-4.0675 l -3e-5,-4.7505 c 0,-0.2199 0.13222,-0.397 0.29642,-0.3967 l 2.40815,1e-4 c 0.16385,-1e-4 0.29556,0.1769 0.29538,0.3969 l -5e-5,4.7827 c 4.13872,0.5376 5.54787,1.3199 8.39433,4.0354 l 1.6403,-0.4081 -2.34703,-3.3769 c -0.48472,-0.5258 0.4736,-0.9424 0.4736,-0.9424 l 1.76461,-1.2373 c 1.76362,-1.2355 4.35126,-3.359 2.25312,-6.3532 -2.09799,-2.9941 -4.97716,-1.2864 -6.77842,-0.083 l -1.84755,1.2731 c 0,0 -0.85293,0.1667 -1.37595,-0.5859 l -2.0923,-3.0104 c -0.0169,-0.047 -3.15966,-0.047 -3.15966,-0.047 z m -7.644,-0.015 c 0.20228,0 0.40587,0.065 0.58396,0.1904 0.47492,0.3325 0.59013,0.9875 0.25729,1.4623 -0.33097,0.4763 -0.98754,0.5901 -1.46247,0.2574 -0.47502,-0.3326 -0.59007,-0.9874 -0.25722,-1.4624 0.20685,-0.2976 0.54146,-0.4535 0.87844,-0.4477 z m 22.67266,-1e-4 c 0.33698,-0.01 0.67052,0.1507 0.87854,0.4475 0.33096,0.4762 0.21754,1.1297 -0.25736,1.4625 -0.47506,0.3326 -1.12972,0.2175 -1.46246,-0.2574 -0.33097,-0.4762 -0.21763,-1.1298 0.25731,-1.4624 0.17805,-0.1249 0.38167,-0.1872 0.58397,-0.1902 z"
       id="path1189"
       inkscape:connector-curvature="0"
       sodipodi:nodetypes="ccccccccccssssccccccccccccccccccccccccc" />
    <path
       sodipodi:nodetypes="ccccccccccccccccccccccccsccscccccccccccc"
       inkscape:connector-curvature="0"
       d="m 31.51988,94.98208 c -0.20224,-1e-4 -0.40589,0.065 -0.58396,0.1901 -0.47504,0.3326 -0.59015,0.9875 -0.25741,1.4624 0.33099,0.476201 0.98756,0.5902 1.46248,0.2572 0.47495,-0.3325 0.5901,-0.987399 0.25742,-1.4622 -0.20686,-0.2976 -0.54153,-0.4534 -0.87853,-0.4475 v 0 m -22.67243,1e-4 c 0.20222,1.01e-4 0.40579,0.065 0.58396,0.1903 0.4749,0.3325 0.59005,0.9874 0.25728,1.4623 -0.33091,0.4762 -0.98753,0.5902 -1.46245,0.2574 -0.47502,-0.3326 -0.59018,-0.9875 -0.25731,-1.4625 0.20682,-0.2976 0.5415,-0.4532 0.87852,-0.4475 v 0 m 1.44198,11.73939 -1.66272,-0.4237 2.15254,-3.0971 c 0,0 0.31549,-0.8052 -0.44598,-1.339 l -1.57525,-1.1046 c -1.76353,-1.235403 -4.3512,-3.35889 -2.2531,-6.35299 2.09809,-2.9942 4.97717,-1.2864 6.77833,-0.083 l 1.71111,1.1783 c 0,0 0.89953,0.3423 1.49022,-0.5076 l 2.19965,-3.1649 -5e-5,5.3311 c 5e-5,0.1927 0.11869,0.3483 0.26625,0.3481 h 2.46729 c 0.1474,1e-4 0.26615,-0.1555 0.26625,-0.3481 l 5e-5,-5.3311 2.19956,3.1647 c 0,0 0.74388,0.9406 1.47865,0.5156 l 1.72267,-1.1863 c 1.80126,-1.203 4.6803,-2.9109 6.77841,0.083 2.0981,2.9942 -0.48965,5.117387 -2.25305,6.35309 l -1.74722,1.2252 c -0.66573,0.4422 -0.39333,1.0466 -0.39333,1.0466 l 2.27228,3.2694 -1.66272,0.4237 c -5.76723,-5.7884 -14.31058,-5.346 -19.78986,-6e-4 z"
       style="opacity:1;vector-effect:none;fill:none;fill-opacity:1;fill-rule:nonzero;stroke:#0000ff;stroke-width:0.09999999;stroke-linecap:round;stroke-linejoin:round;stroke-miterlimit:4;stroke-dasharray:none;stroke-dashoffset:0;stroke-opacity:1"
       id="path1191" />
    <path
       sodipodi:nodetypes="ccccccccccssssccccccccccccccccccccccccc"
       inkscape:connector-curvature="0"
       id="path1199"
       d="m 16.49175,139.38074 c 0,0 -0.55658,1.1511 -1.45778,0.5303 l -1.7503,-1.2056 c -1.80126,-1.2033 -4.68032,-2.911 -6.77836,0.083 -2.09804,2.9941 0.48967,5.1175 2.25306,6.3531 l 1.82921,1.2822 c 0.79414,0.4664 0.17013,1.2072 0.17013,1.2072 l -2.12368,3.0556 1.65573,0.4188 c 2.19578,-2.5917 5.4934,-3.8231 8.39428,-4.0675 l -3e-5,-4.7505 c 0,-0.2199 0.13222,-0.397 0.29642,-0.3967 l 2.40815,1e-4 c 0.16385,-1e-4 0.29556,0.1769 0.29538,0.3969 l -5e-5,4.7827 c 4.13872,0.5376 5.54787,1.3199 8.39433,4.0354 l 1.6403,-0.4081 -2.34703,-3.3769 c -0.48472,-0.5258 0.4736,-0.9424 0.4736,-0.9424 l 1.76461,-1.2373 c 1.76362,-1.2355 4.35126,-3.359 2.25312,-6.3532 -2.09799,-2.9941 -4.97716,-1.2864 -6.77842,-0.083 l -1.84755,1.2731 c 0,0 -0.85293,0.1667 -1.37595,-0.5859 l -2.0923,-3.0104 c -0.0169,-0.047 -3.15966,-0.047 -3.15966,-0.047 z m -7.644,-0.015 c 0.20228,0 0.40587,0.065 0.58396,0.1904 0.47492,0.3325 0.59013,0.9875 0.25729,1.4623 -0.33097,0.4763 -0.98754,0.5901 -1.46247,0.2574 -0.47502,-0.3326 -0.59007,-0.9874 -0.25722,-1.4624 0.20685,-0.2976 0.54146,-0.4535 0.87844,-0.4477 z m 22.67266,-10e-5 c 0.33698,-0.01 0.67052,0.1507 0.87854,0.4475 0.33096,0.4762 0.21754,1.1297 -0.25736,1.4625 -0.47506,0.3326 -1.12972,0.2175 -1.46246,-0.2574 -0.33097,-0.4762 -0.21763,-1.1298 0.25731,-1.4624 0.17805,-0.1249 0.38167,-0.1872 0.58397,-0.1902 z"
       style="opacity:1;vector-effect:none;fill:none;fill-opacity:1;fill-rule:nonzero;stroke:#0000ff;stroke-width:0.09999996;stroke-linecap:round;stroke-linejoin:round;stroke-miterlimit:4;stroke-dasharray:none;stroke-dashoffset:0;stroke-opacity:1" />
    <path
       id="path1201"
       style="opacity:1;vector-effect:none;fill:none;fill-opacity:1;fill-rule:nonzero;stroke:#0000ff;stroke-width:0.09999999;stroke-linecap:round;stroke-linejoin:round;stroke-miterlimit:4;stroke-dasharray:none;stroke-dashoffset:0;stroke-opacity:1"
       d="m 31.51988,124.61255 c -0.20224,-1e-4 -0.40589,0.065 -0.58396,0.1901 -0.47504,0.3326 -0.59015,0.9875 -0.25741,1.4624 0.33099,0.4762 0.98756,0.5902 1.46248,0.2572 0.47495,-0.3325 0.5901,-0.9874 0.25742,-1.4622 -0.20686,-0.2976 -0.54153,-0.4534 -0.87853,-0.4475 v 0 m -22.67243,1e-4 c 0.20222,1e-4 0.40579,0.065 0.58396,0.1903 0.4749,0.3325 0.59005,0.9874 0.25728,1.4623 -0.33091,0.4762 -0.98753,0.5902 -1.46245,0.2574 -0.47502,-0.3326 -0.59018,-0.9875 -0.25731,-1.4625 0.20682,-0.2976 0.5415,-0.4532 0.87852,-0.4475 v 0 m 1.44198,11.7394 -1.66272,-0.4237 2.15254,-3.0971 c 0,0 0.31549,-0.8052 -0.44598,-1.339 l -1.57525,-1.1046 c -1.76353,-1.2354 -4.3512,-3.3589 -2.2531,-6.353 2.09809,-2.9942 4.97717,-1.2864 6.77833,-0.083 l 1.71111,1.1783 c 0,0 0.89953,0.3423 1.49022,-0.5076 l 2.19965,-3.1649 -5e-5,5.3311 c 5e-5,0.1927 0.11869,0.3483 0.26625,0.3481 h 2.46729 c 0.1474,1e-4 0.26615,-0.1555 0.26625,-0.3481 l 5e-5,-5.3311 2.19956,3.1647 c 0,0 0.74388,0.9406 1.47865,0.5156 l 1.72267,-1.1863 c 1.80126,-1.203 4.6803,-2.9109 6.77841,0.083 2.0981,2.9942 -0.48965,5.1174 -2.25305,6.3531 l -1.74722,1.2252 c -0.66573,0.4422 -0.39333,1.0466 -0.39333,1.0466 l 2.27228,3.2694 -1.66272,0.4237 c -5.76723,-5.7884 -14.31058,-5.346 -19.78986,-6e-4 z"
       inkscape:connector-curvature="0"
       sodipodi:nodetypes="ccccccccccccccccccccccccsccscccccccccccc" />
    <path
       sodipodi:nodetypes="ccccccccccssssccccccccccccccccccccccccc"
       inkscape:connector-curvature="0"
       id="path2958"
       d="m 50.61934,134.26945 c 0,0 0.55658,-1.1511 1.45778,-0.5303 l 1.7503,1.2056 c 1.80126,1.2033 4.68032,2.911 6.77836,-0.083 2.09804,-2.9941 -0.48967,-5.1175 -2.25306,-6.3531 l -1.82921,-1.2822 c -0.79414,-0.4664 -0.17013,-1.2072 -0.17013,-1.2072 l 2.12368,-3.0556 -1.65573,-0.4188 c -2.19578,2.5917 -5.4934,3.8231 -8.39428,4.0675 l 3e-5,4.7505 c 0,0.2199 -0.13222,0.397 -0.29642,0.3967 l -2.40815,-1e-4 c -0.16385,1e-4 -0.29556,-0.1769 -0.29538,-0.3969 l 5e-5,-4.7827 c -4.13872,-0.5376 -5.54787,-1.3199 -8.39433,-4.0354 l -1.6403,0.4081 2.34703,3.3769 c 0.48472,0.5258 -0.4736,0.9424 -0.4736,0.9424 l -1.76461,1.2373 c -1.76362,1.2355 -4.35126,3.359 -2.25312,6.3532 2.09799,2.9941 4.97716,1.2864 6.77842,0.083 l 1.84755,-1.2731 c 0,0 0.85293,-0.1667 1.37595,0.5859 l 2.0923,3.0104 c 0.0169,0.047 3.15966,0.047 3.15966,0.047 z m 7.644,0.015 c -0.20228,0 -0.40587,-0.065 -0.58396,-0.1904 -0.47492,-0.3325 -0.59013,-0.9875 -0.25729,-1.4623 0.33097,-0.4763 0.98754,-0.5901 1.46247,-0.2574 0.47502,0.3326 0.59007,0.9874 0.25722,1.4624 -0.20685,0.2976 -0.54146,0.4535 -0.87844,0.4477 z m -22.67266,1e-4 c -0.33698,0.01 -0.67052,-0.1507 -0.87854,-0.4475 -0.33096,-0.4762 -0.21754,-1.1297 0.25736,-1.4625 0.47506,-0.3326 1.12972,-0.2175 1.46246,0.2574 0.33097,0.4762 0.21763,1.1298 -0.25731,1.4624 -0.17805,0.1249 -0.38167,0.1872 -0.58397,0.1902 z"
       style="opacity:1;vector-effect:none;fill:none;fill-opacity:1;fill-rule:nonzero;stroke:#0000ff;stroke-width:0.09999996;stroke-linecap:round;stroke-linejoin:round;stroke-miterlimit:4;stroke-dasharray:none;stroke-dashoffset:0;stroke-opacity:1" />
    <path
       id="path2960"
       style="opacity:1;vector-effect:none;fill:none;fill-opacity:1;fill-rule:nonzero;stroke:#0000ff;stroke-width:0.09999999;stroke-linecap:round;stroke-linejoin:round;stroke-miterlimit:4;stroke-dasharray:none;stroke-dashoffset:0;stroke-opacity:1"
       d="m 35.59121,149.03764 c 0.20224,1e-4 0.40589,-0.065 0.58396,-0.1901 0.47504,-0.3326 0.59015,-0.9875 0.25741,-1.4624 -0.33099,-0.4762 -0.98756,-0.5902 -1.46248,-0.2572 -0.47495,0.3325 -0.5901,0.9874 -0.25742,1.4622 0.20686,0.2976 0.54153,0.4534 0.87853,0.4475 v 0 m 22.67243,-1e-4 c -0.20222,-1e-4 -0.40579,-0.065 -0.58396,-0.1903 -0.4749,-0.3325 -0.59005,-0.9874 -0.25728,-1.4623 0.33091,-0.4762 0.98753,-0.5902 1.46245,-0.2574 0.47502,0.3326 0.59018,0.9875 0.25731,1.4625 -0.20682,0.2976 -0.5415,0.4532 -0.87852,0.4475 v 0 m -1.44198,-11.73939 1.66272,0.4237 -2.15254,3.0971 c 0,0 -0.31549,0.8052 0.44598,1.339 l 1.57525,1.1046 c 1.76353,1.2354 4.3512,3.35889 2.2531,6.35299 -2.09809,2.9942 -4.97717,1.2864 -6.77833,0.083 l -1.71111,-1.1783 c 0,0 -0.89953,-0.3423 -1.49022,0.5076 l -2.19965,3.1649 5e-5,-5.3311 c -5e-5,-0.1927 -0.11869,-0.3483 -0.26625,-0.3481 h -2.46729 c -0.1474,-1e-4 -0.26615,0.1555 -0.26625,0.3481 l -5e-5,5.3311 -2.19956,-3.1647 c 0,0 -0.74388,-0.9406 -1.47865,-0.5156 l -1.72267,1.1863 c -1.80126,1.203 -4.6803,2.9109 -6.77841,-0.083 -2.0981,-2.9942 0.48965,-5.11739 2.25305,-6.35309 l 1.74722,-1.2252 c 0.66573,-0.4422 0.39333,-1.0466 0.39333,-1.0466 l -2.27228,-3.2694 1.66272,-0.4237 c 5.76723,5.7884 14.31058,5.346 19.78986,6e-4 z"
       inkscape:connector-curvature="0"
       sodipodi:nodetypes="ccccccccccccccccccccccccsccscccccccccccc" />
    <path
       style="opacity:1;vector-effect:none;fill:none;fill-opacity:1;fill-rule:nonzero;stroke:#0000ff;stroke-width:0.09999996;stroke-linecap:round;stroke-linejoin:round;stroke-miterlimit:4;stroke-dasharray:none;stroke-dashoffset:0;stroke-opacity:1"
       d="m 50.61934,104.63898 c 0,0 0.55658,-1.1511 1.45778,-0.5303 l 1.7503,1.2056 c 1.80126,1.2033 4.68032,2.911 6.77836,-0.083 2.09804,-2.9941 -0.48967,-5.1175 -2.25306,-6.3531 l -1.82921,-1.2822 c -0.79414,-0.4664 -0.17013,-1.2072 -0.17013,-1.2072 l 2.12368,-3.0556 -1.65573,-0.4188 c -2.19578,2.5917 -5.4934,3.8231 -8.39428,4.0675 l 3e-5,4.7505 c 0,0.2199 -0.13222,0.397 -0.29642,0.3967 l -2.40815,-1e-4 c -0.16385,1e-4 -0.29556,-0.1769 -0.29538,-0.3969 l 5e-5,-4.7827 c -4.13872,-0.5376 -5.54787,-1.3199 -8.39433,-4.0354 l -1.6403,0.4081 2.34703,3.3769 c 0.48472,0.5258 -0.4736,0.9424 -0.4736,0.9424 l -1.76461,1.2373 c -1.76362,1.2355 -4.35126,3.359 -2.25312,6.3532 2.09799,2.9941 4.97716,1.2864 6.77842,0.083 l 1.84755,-1.2731 c 0,0 0.85293,-0.1667 1.37595,0.5859 l 2.0923,3.0104 c 0.0169,0.047 3.15966,0.047 3.15966,0.047 z m 7.644,0.015 c -0.20228,0 -0.40587,-0.065 -0.58396,-0.1904 -0.47492,-0.3325 -0.59013,-0.9875 -0.25729,-1.4623 0.33097,-0.4763 0.98754,-0.5901 1.46247,-0.2574 0.47502,0.3326 0.59007,0.9874 0.25722,1.4624 -0.20685,0.2976 -0.54146,0.4535 -0.87844,0.4477 z m -22.67266,10e-5 c -0.33698,0.01 -0.67052,-0.1507 -0.87854,-0.4475 -0.33096,-0.4762 -0.21754,-1.1297 0.25736,-1.4625 0.47506,-0.3326 1.12972,-0.2175 1.46246,0.2574 0.33097,0.4762 0.21763,1.1298 -0.25731,1.4624 -0.17805,0.1249 -0.38167,0.1872 -0.58397,0.1902 z"
       id="path2962"
       inkscape:connector-curvature="0"
       sodipodi:nodetypes="ccccccccccssssccccccccccccccccccccccccc" />
    <path
       sodipodi:nodetypes="ccccccccccccccccccccccccsccscccccccccccc"
       inkscape:connector-curvature="0"
       d="m 35.59121,119.40717 c 0.20224,1e-4 0.40589,-0.065 0.58396,-0.1901 0.47504,-0.3326 0.59015,-0.9875 0.25741,-1.4624 -0.33099,-0.4762 -0.98756,-0.5902 -1.46248,-0.2572 -0.47495,0.3325 -0.5901,0.9874 -0.25742,1.4622 0.20686,0.2976 0.54153,0.4534 0.87853,0.4475 v 0 m 22.67243,-10e-5 c -0.20222,-1e-4 -0.40579,-0.065 -0.58396,-0.1903 -0.4749,-0.3325 -0.59005,-0.9874 -0.25728,-1.4623 0.33091,-0.4762 0.98753,-0.5902 1.46245,-0.2574 0.47502,0.3326 0.59018,0.9875 0.25731,1.4625 -0.20682,0.2976 -0.5415,0.4532 -0.87852,0.4475 v 0 m -1.44198,-11.7394 1.66272,0.4237 -2.15254,3.0971 c 0,0 -0.31549,0.8052 0.44598,1.339 l 1.57525,1.1046 c 1.76353,1.2354 4.3512,3.3589 2.2531,6.353 -2.09809,2.9942 -4.97717,1.2864 -6.77833,0.083 l -1.71111,-1.1783 c 0,0 -0.89953,-0.3423 -1.49022,0.5076 l -2.19965,3.1649 5e-5,-5.3311 c -5e-5,-0.1927 -0.11869,-0.3483 -0.26625,-0.3481 h -2.46729 c -0.1474,-1e-4 -0.26615,0.1555 -0.26625,0.3481 l -5e-5,5.3311 -2.19956,-3.1647 c 0,0 -0.74388,-0.9406 -1.47865,-0.5156 l -1.72267,1.1863 c -1.80126,1.203 -4.6803,2.9109 -6.77841,-0.083 -2.0981,-2.9942 0.48965,-5.1174 2.25305,-6.3531 l 1.74722,-1.2252 c 0.66573,-0.4422 0.39333,-1.0466 0.39333,-1.0466 l -2.27228,-3.2694 1.66272,-0.4237 c 5.76723,5.7884 14.31058,5.346 19.78986,6e-4 z"
       style="opacity:1;vector-effect:none;fill:none;fill-opacity:1;fill-rule:nonzero;stroke:#0000ff;stroke-width:0.09999999;stroke-linecap:round;stroke-linejoin:round;stroke-miterlimit:4;stroke-dasharray:none;stroke-dashoffset:0;stroke-opacity:1"
       id="path2964" />
    <path
       style="opacity:1;vector-effect:none;fill:none;fill-opacity:1;fill-rule:nonzero;stroke:#0000ff;stroke-width:0.09999996;stroke-linecap:round;stroke-linejoin:round;stroke-miterlimit:4;stroke-dasharray:none;stroke-dashoffset:0;stroke-opacity:1"
       d="m 69.977493,109.75027 c 0,0 -0.55658,1.1511 -1.45778,0.5303 l -1.7503,-1.2056 c -1.80126,-1.2033 -4.68032,-2.911 -6.77836,0.083 -2.09804,2.9941 0.48967,5.1175 2.25306,6.3531 l 1.82921,1.2822 c 0.79414,0.4664 0.17013,1.2072 0.17013,1.2072 l -2.12368,3.0556 1.65573,0.4188 c 2.19578,-2.5917 5.4934,-3.8231 8.39428,-4.0675 l -3e-5,-4.7505 c 0,-0.2199 0.13222,-0.397 0.29642,-0.3967 l 2.40815,1e-4 c 0.16385,-1e-4 0.29556,0.1769 0.29538,0.3969 l -5e-5,4.7827 c 4.13872,0.5376 5.54787,1.3199 8.39433,4.0354 l 1.6403,-0.4081 -2.34703,-3.3769 c -0.48472,-0.5258 0.4736,-0.9424 0.4736,-0.9424 l 1.76461,-1.2373 c 1.76362,-1.2355 4.35126,-3.359 2.25312,-6.3532 -2.09799,-2.9941 -4.97716,-1.2864 -6.77842,-0.083 l -1.84755,1.2731 c 0,0 -0.85293,0.1667 -1.37595,-0.5859 l -2.0923,-3.0104 c -0.0169,-0.047 -3.15966,-0.047 -3.15966,-0.047 z m -7.644,-0.015 c 0.20228,0 0.40587,0.065 0.58396,0.1904 0.47492,0.3325 0.59013,0.9875 0.25729,1.4623 -0.33097,0.4763 -0.98754,0.5901 -1.46247,0.2574 -0.47502,-0.3326 -0.59007,-0.9874 -0.25722,-1.4624 0.20685,-0.2976 0.54146,-0.4535 0.87844,-0.4477 z m 22.67266,-1e-4 c 0.33698,-0.01 0.67052,0.1507 0.87854,0.4475 0.33096,0.4762 0.21754,1.1297 -0.25736,1.4625 -0.47506,0.3326 -1.12972,0.2175 -1.46246,-0.2574 -0.33097,-0.4762 -0.21763,-1.1298 0.25731,-1.4624 0.17805,-0.1249 0.38167,-0.1872 0.58397,-0.1902 z"
       id="path1189-3"
       inkscape:connector-curvature="0"
       sodipodi:nodetypes="ccccccccccssssccccccccccccccccccccccccc" />
    <path
       sodipodi:nodetypes="ccccccccccccccccccccccccsccscccccccccccc"
       inkscape:connector-curvature="0"
       d="m 85.005623,94.98208 c -0.20224,-1e-4 -0.40589,0.065 -0.58396,0.1901 -0.47504,0.3326 -0.59015,0.9875 -0.25741,1.4624 0.33099,0.476201 0.98756,0.5902 1.46248,0.2572 0.47495,-0.3325 0.5901,-0.987399 0.25742,-1.4622 -0.20686,-0.2976 -0.54153,-0.4534 -0.87853,-0.4475 v 0 m -22.67243,1e-4 c 0.20222,1.01e-4 0.40579,0.065 0.58396,0.1903 0.4749,0.3325 0.59005,0.9874 0.25728,1.4623 -0.33091,0.4762 -0.98753,0.5902 -1.46245,0.2574 -0.47502,-0.3326 -0.59018,-0.9875 -0.25731,-1.4625 0.20682,-0.2976 0.5415,-0.4532 0.87852,-0.4475 v 0 m 1.44198,11.73939 -1.66272,-0.4237 2.15254,-3.0971 c 0,0 0.31549,-0.8052 -0.44598,-1.339 l -1.57525,-1.1046 c -1.76353,-1.235403 -4.3512,-3.35889 -2.2531,-6.35299 2.09809,-2.9942 4.97717,-1.2864 6.77833,-0.083 l 1.71111,1.1783 c 0,0 0.89953,0.3423 1.49022,-0.5076 l 2.19965,-3.1649 -5e-5,5.3311 c 5e-5,0.1927 0.11869,0.3483 0.26625,0.3481 h 2.46729 c 0.1474,1e-4 0.26615,-0.1555 0.26625,-0.3481 l 5e-5,-5.3311 2.19956,3.1647 c 0,0 0.74388,0.9406 1.47865,0.5156 l 1.72267,-1.1863 c 1.80126,-1.203 4.6803,-2.9109 6.77841,0.083 2.0981,2.9942 -0.48965,5.117387 -2.25305,6.35309 l -1.74722,1.2252 c -0.66573,0.4422 -0.39333,1.0466 -0.39333,1.0466 l 2.27228,3.2694 -1.66272,0.4237 c -5.76723,-5.7884 -14.31058,-5.346 -19.78986,-6e-4 z"
       style="opacity:1;vector-effect:none;fill:none;fill-opacity:1;fill-rule:nonzero;stroke:#0000ff;stroke-width:0.09999999;stroke-linecap:round;stroke-linejoin:round;stroke-miterlimit:4;stroke-dasharray:none;stroke-dashoffset:0;stroke-opacity:1"
       id="path1191-7" />
    <path
       sodipodi:nodetypes="ccccccccccssssccccccccccccccccccccccccc"
       inkscape:connector-curvature="0"
       id="path1199-2"
       d="m 69.977493,139.38074 c 0,0 -0.55658,1.1511 -1.45778,0.5303 l -1.7503,-1.2056 c -1.80126,-1.2033 -4.68032,-2.911 -6.77836,0.083 -2.09804,2.9941 0.48967,5.1175 2.25306,6.3531 l 1.82921,1.2822 c 0.79414,0.4664 0.17013,1.2072 0.17013,1.2072 l -2.12368,3.0556 1.65573,0.4188 c 2.19578,-2.5917 5.4934,-3.8231 8.39428,-4.0675 l -3e-5,-4.7505 c 0,-0.2199 0.13222,-0.397 0.29642,-0.3967 l 2.40815,1e-4 c 0.16385,-1e-4 0.29556,0.1769 0.29538,0.3969 l -5e-5,4.7827 c 4.13872,0.5376 5.54787,1.3199 8.39433,4.0354 l 1.6403,-0.4081 -2.34703,-3.3769 c -0.48472,-0.5258 0.4736,-0.9424 0.4736,-0.9424 l 1.76461,-1.2373 c 1.76362,-1.2355 4.35126,-3.359 2.25312,-6.3532 -2.09799,-2.9941 -4.97716,-1.2864 -6.77842,-0.083 l -1.84755,1.2731 c 0,0 -0.85293,0.1667 -1.37595,-0.5859 l -2.0923,-3.0104 c -0.0169,-0.047 -3.15966,-0.047 -3.15966,-0.047 z m -7.644,-0.015 c 0.20228,0 0.40587,0.065 0.58396,0.1904 0.47492,0.3325 0.59013,0.9875 0.25729,1.4623 -0.33097,0.4763 -0.98754,0.5901 -1.46247,0.2574 -0.47502,-0.3326 -0.59007,-0.9874 -0.25722,-1.4624 0.20685,-0.2976 0.54146,-0.4535 0.87844,-0.4477 z m 22.67266,-10e-5 c 0.33698,-0.01 0.67052,0.1507 0.87854,0.4475 0.33096,0.4762 0.21754,1.1297 -0.25736,1.4625 -0.47506,0.3326 -1.12972,0.2175 -1.46246,-0.2574 -0.33097,-0.4762 -0.21763,-1.1298 0.25731,-1.4624 0.17805,-0.1249 0.38167,-0.1872 0.58397,-0.1902 z"
       style="opacity:1;vector-effect:none;fill:none;fill-opacity:1;fill-rule:nonzero;stroke:#0000ff;stroke-width:0.09999996;stroke-linecap:round;stroke-linejoin:round;stroke-miterlimit:4;stroke-dasharray:none;stroke-dashoffset:0;stroke-opacity:1" />
    <path
       id="path1201-6"
       style="opacity:1;vector-effect:none;fill:none;fill-opacity:1;fill-rule:nonzero;stroke:#0000ff;stroke-width:0.09999999;stroke-linecap:round;stroke-linejoin:round;stroke-miterlimit:4;stroke-dasharray:none;stroke-dashoffset:0;stroke-opacity:1"
       d="m 85.005623,124.61255 c -0.20224,-1e-4 -0.40589,0.065 -0.58396,0.1901 -0.47504,0.3326 -0.59015,0.9875 -0.25741,1.4624 0.33099,0.4762 0.98756,0.5902 1.46248,0.2572 0.47495,-0.3325 0.5901,-0.9874 0.25742,-1.4622 -0.20686,-0.2976 -0.54153,-0.4534 -0.87853,-0.4475 v 0 m -22.67243,1e-4 c 0.20222,1e-4 0.40579,0.065 0.58396,0.1903 0.4749,0.3325 0.59005,0.9874 0.25728,1.4623 -0.33091,0.4762 -0.98753,0.5902 -1.46245,0.2574 -0.47502,-0.3326 -0.59018,-0.9875 -0.25731,-1.4625 0.20682,-0.2976 0.5415,-0.4532 0.87852,-0.4475 v 0 m 1.44198,11.7394 -1.66272,-0.4237 2.15254,-3.0971 c 0,0 0.31549,-0.8052 -0.44598,-1.339 l -1.57525,-1.1046 c -1.76353,-1.2354 -4.3512,-3.3589 -2.2531,-6.353 2.09809,-2.9942 4.97717,-1.2864 6.77833,-0.083 l 1.71111,1.1783 c 0,0 0.89953,0.3423 1.49022,-0.5076 l 2.19965,-3.1649 -5e-5,5.3311 c 5e-5,0.1927 0.11869,0.3483 0.26625,0.3481 h 2.46729 c 0.1474,1e-4 0.26615,-0.1555 0.26625,-0.3481 l 5e-5,-5.3311 2.19956,3.1647 c 0,0 0.74388,0.9406 1.47865,0.5156 l 1.72267,-1.1863 c 1.80126,-1.203 4.6803,-2.9109 6.77841,0.083 2.0981,2.9942 -0.48965,5.1174 -2.25305,6.3531 l -1.74722,1.2252 c -0.66573,0.4422 -0.39333,1.0466 -0.39333,1.0466 l 2.27228,3.2694 -1.66272,0.4237 c -5.76723,-5.7884 -14.31058,-5.346 -19.78986,-6e-4 z"
       inkscape:connector-curvature="0"
       sodipodi:nodetypes="ccccccccccccccccccccccccsccscccccccccccc" />
  </g>
</svg>
