<?xml version="1.0" encoding="UTF-8" standalone="no"?>
<!-- Created with Inkscape (http://www.inkscape.org/) -->

<svg
   xmlns:dc="http://purl.org/dc/elements/1.1/"
   xmlns:cc="http://creativecommons.org/ns#"
   xmlns:rdf="http://www.w3.org/1999/02/22-rdf-syntax-ns#"
   xmlns:svg="http://www.w3.org/2000/svg"
   xmlns="http://www.w3.org/2000/svg"
   xmlns:sodipodi="http://sodipodi.sourceforge.net/DTD/sodipodi-0.dtd"
   xmlns:inkscape="http://www.inkscape.org/namespaces/inkscape"
   width="411.83774mm"
   height="288.0177mm"
   viewBox="0 0 411.83774 288.0177"
   version="1.1"
   id="svg1134"
   inkscape:version="0.92.2 (5c3e80d, 2017-08-06)"
   sodipodi:docname="OctahedronMirroredSidesx8.svg">
  <defs
     id="defs1128" />
  <sodipodi:namedview
     id="base"
     pagecolor="#ffffff"
     bordercolor="#666666"
     borderopacity="1.0"
     inkscape:pageopacity="0.0"
     inkscape:pageshadow="2"
     inkscape:zoom="0.41425133"
     inkscape:cx="551.46216"
     inkscape:cy="133.86018"
     inkscape:document-units="mm"
     inkscape:current-layer="g3958"
     showgrid="false"
     fit-margin-top="0"
     fit-margin-left="0"
     fit-margin-right="0"
     fit-margin-bottom="0"
     inkscape:window-width="1280"
     inkscape:window-height="971"
     inkscape:window-x="1912"
     inkscape:window-y="-8"
     inkscape:window-maximized="1" />
  <metadata
     id="metadata1131">
    <rdf:RDF>
      <cc:Work
         rdf:about="">
        <dc:format>image/svg+xml</dc:format>
        <dc:type
           rdf:resource="http://purl.org/dc/dcmitype/StillImage" />
        <dc:title></dc:title>
      </cc:Work>
    </rdf:RDF>
  </metadata>
  <g
     inkscape:label="Layer 1"
     inkscape:groupmode="layer"
     id="layer1"
     transform="translate(177.17725,27.1229)">
    <g
       transform="translate(97.498145,1645.5169)"
       id="g3958">
      <path
         id="path2412"
         style="opacity:1;vector-effect:none;fill:none;fill-opacity:0.68382353;fill-rule:evenodd;stroke:#0000ff;stroke-width:0.09999996;stroke-linecap:round;stroke-linejoin:round;stroke-miterlimit:4;stroke-dasharray:none;stroke-dashoffset:0;stroke-opacity:1"
         d="m -187.20886,-1667.24 c -0.0543,-0.094 -0.0539,-0.2333 0.0198,-0.3593 l 1.20192,-2.0812 c 0.0722,-0.1263 0.19163,-0.1998 0.30098,-0.1971 0.0364,0 0.0716,0.01 0.10331,0.029 l 6.30944,3.6427 c 0.0318,0.019 0.0572,0.045 0.0768,0.075 0.0548,0.095 0.0521,0.2341 -0.0198,0.3593 l -5e-4,-9e-4 -1.20187,2.0825 c -0.0964,0.1672 -0.27672,0.2425 -0.40455,0.1685 l -6.3087,-3.6428 c -0.0318,-0.019 -0.0577,-0.044 -0.0768,-0.075 z m 156.9428,-0.032 -0.8651,-0.4996 1.03582,-1.7941 c 0.10479,-0.2115 0.0966,-0.1112 0.29841,-0.091 0.29283,0.029 0.4982,0.044 0.59102,-0.1445 0.45853,-0.9338 -0.71804,-2.5851 -1.37257,-2.4313 -0.19522,0.046 -0.2284,0.2398 -0.29441,0.4494 -0.072,0.2288 -0.33167,0.1964 -0.33167,0.1964 l -2.07817,-10e-5 v -1 h -8.11674 v 1 l -2.3001,10e-5 v -1 l -8.1168,-10e-5 v 1 l -2.3001,10e-5 v -1 l -8.11737,-10e-5 8e-5,0.9999 -2.30019,2e-4 v -1 l -8.116792,5e-4 8e-5,0.9993 -2.300194,2e-4 v -0.9996 h -8.116851 v 0.9996 l -2.300105,-10e-5 v -0.9994 h -8.116852 l -1e-6,0.9994 -2.300105,10e-5 8.6e-5,-0.9997 -8.116876,2e-4 -1e-5,0.9994 -2.3001,10e-5 9e-5,-0.9997 -8.11694,10e-5 v 0.9996 l -2.30002,-2e-4 -9e-5,-0.9993 h -8.11685 v 0.9994 l -2.30011,10e-5 v -0.9996 h -8.11673 l -6e-5,0.9995 -2.30011,10e-5 6e-5,-0.9997 -8.11737,10e-5 3e-5,0.9994 -2.30019,2e-4 6e-5,-0.9997 -8.11677,5e-4 -3e-5,0.999 h -2.30016 l -6e-5,-0.9989 h -8.11673 v 0.999 l -2.30011,-10e-5 v -0.999 h -8.11685 v 0.999 h -2.30005 v -0.999 h -8.11685 v 0.999 h -2.07766 c -0.2583,-0.092 -0.27352,-0.125 -0.42282,-0.3958 -0.0909,-0.1575 -0.0929,-0.2509 -0.38642,-0.2347 -0.70965,0.039 -1.71704,1.6384 -1.33126,2.307 0.12494,0.2174 0.25869,0.1843 0.3713,0.1879 0.19941,0.01 0.39967,-0.01 0.57995,0.1519 l 1.03903,1.7999 -0.86603,0.5 4.05843,7.0294 0.86616,-0.5 1.15008,1.992 -0.86602,0.5 4.05823,7.0293 0.86602,-0.5 1.15023,1.992 -0.86603,0.5 4.05852,7.0298 0.86602,-0.5 1.15022,1.992 -0.86602,0.5 4.05883,7.0291 0.86542,-0.4998 1.15022,1.992 -0.86576,0.4997 4.05857,7.0294 0.86562,-0.4997 1.14988,1.9919 -0.86542,0.4998 4.05843,7.0294 0.86542,-0.4998 1.15022,1.992 -0.86576,0.4997 4.05843,7.0294 0.86564,-0.4999 1.15014,1.9921 -0.86568,0.4998 4.05835,7.0293 0.86576,-0.4997 1.15002,1.9919 -0.86556,0.4998 4.05842,7.0294 0.86543,-0.4998 1.15022,1.992 -0.86563,0.4997 4.05843,7.0294 0.86542,-0.4998 1.15017,1.9919 -0.86571,0.4998 4.05886,7.0299 0.86557,-0.4998 1.15008,1.992 -0.86577,0.4997 4.05892,7.0292 0.86516,-0.4995 1.14999,1.9919 -0.86516,0.4995 4.05857,7.0294 0.86516,-0.4995 1.14988,1.9919 -0.86516,0.4995 4.05857,7.0294 0.86516,-0.4995 1.15003,1.9919 -0.86522,0.4996 4.05849,7.0293 0.86516,-0.4995 1.06472,1.8446 c 0,0 0.0818,0.1419 -0.16692,0.289 -0.33041,0.2524 -0.34837,0.6064 0.20283,0.7293 0.94813,0.2114 1.56824,0.061 2.21997,-0.069 0.42973,-0.2831 -0.0619,-0.5545 -0.0619,-0.5545 -0.147,-0.135 0.0199,-0.252 0.11356,-0.5038 l 1.00349,-1.7381 0.86614,0.5 4.0586,-7.0297 -0.86608,-0.4999 1.15008,-1.992 0.86602,0.5 4.058434,-7.0294 -0.865968,-0.4999 1.149966,-1.992 0.866023,0.5 4.058717,-7.0299 -0.866084,-0.4999 1.150077,-1.992 0.866028,0.5 4.058439,-7.0294 -0.865563,-0.4998 1.150026,-1.9919 0.86562,0.4997 4.058424,-7.0294 -0.86562,-0.4997 1.150083,-1.992 0.865563,0.4998 4.058429,-7.0294 -0.865736,-0.4997 1.150086,-1.992 0.86556,0.4998 4.058426,-7.0294 -0.865562,-0.4998 1.150032,-1.9919 0.86562,0.4997 4.05848,-7.0293 -0.86568,-0.4998 1.15003,-1.9919 0.86562,0.4997 4.05842,-7.0294 -0.86562,-0.4997 1.15008,-1.992 0.86557,0.4998 4.05842,-7.0294 -0.8655,-0.4997 1.14996,-1.992 0.86563,0.4997 4.05865,-7.0298 -0.86562,-0.4997 1.15008,-1.992 0.86568,0.4998 4.05791,-7.0297 -0.86516,-0.4995 1.15002,-1.9919 0.86516,0.4995 4.05843,-7.0294 -0.86516,-0.4995 1.15014,-1.9919 0.86516,0.4995 4.05831,-7.0294 -0.86516,-0.4995 1.15008,-1.992 0.86516,0.4995 z m -78.51752,130.6103 c -0.0549,0.095 -0.17509,0.1633 -0.32111,0.1624 l -2.40327,-2e-4 c -0.1455,4e-4 -0.26893,-0.066 -0.32118,-0.1621 -0.0174,-0.032 -0.0271,-0.067 -0.0265,-0.104 l -1.2e-4,-7.2852 c 6.1e-4,-0.037 0.0104,-0.072 0.0266,-0.104 0.0548,-0.095 0.17686,-0.1623 0.3212,-0.1624 l -5.7e-4,8e-4 2.40437,-3e-4 c 0.19314,-10e-5 0.34836,0.1183 0.34825,0.2659 l -4.6e-4,7.285 c -5.5e-4,0.037 -0.009,0.072 -0.0266,0.104 z m 75.42869,-130.5983 -4.6e-4,8e-4 c -0.0179,0.031 -0.0439,0.056 -0.0762,0.074 l -6.30911,3.6433 c -0.12818,0.074 -0.30796,0 -0.40434,-0.169 l -1.2021,-2.0819 c -0.0977,-0.1676 -0.0715,-0.3624 0.0562,-0.4354 l 6.41586,-3.6568 c 0.10681,-0.015 0.22641,0.058 0.29852,0.1839 l 1.2021,2.0819 2.3e-4,8e-4 c 0.0721,0.1251 0.0738,0.2638 0.0195,0.3579 z"
         inkscape:connector-curvature="0"
         sodipodi:nodetypes="cccccccccccccccccssssccccccccccccccccccccccccccccccccccccccccccccccccccccccccccccccsccscccccccccccccccccccccccccccccccccccccccccccccccccccccccccccccccscccccccccccccccccccccccccccccccccccccccccccccccccccccccccccccccccccccccccccccsccccccccccc" />
      <path
         sodipodi:nodetypes="cccccccccccccccccssssccccccccccccccccccccccccccccccccccccccccccccccccccccccccccccccsccscccccccccccccccccccccccccccccccccccccccccccccccccccccccccccccccscccccccccccccccccccccccccccccccccccccccccccccccccccccccccccccccccccccccccccccsccccccccccc"
         inkscape:connector-curvature="0"
         d="m -187.20811,-1390.0189 c -0.0543,0.094 -0.0539,0.2333 0.0198,0.3593 l 1.20193,2.0812 c 0.0722,0.1263 0.19163,0.1998 0.30098,0.1971 0.0364,0 0.0716,-0.01 0.10331,-0.029 l 6.30944,-3.6427 c 0.0318,-0.019 0.0571,-0.045 0.0768,-0.075 0.0549,-0.095 0.0521,-0.2341 -0.0198,-0.3593 l -5e-4,9e-4 -1.20187,-2.0825 c -0.0964,-0.1672 -0.27672,-0.2425 -0.40455,-0.1685 l -6.3087,3.6428 c -0.0318,0.019 -0.0577,0.044 -0.0768,0.075 z m 156.9428,0.032 -0.8651,0.4996 1.03582,1.7941 c 0.10479,0.2115 0.0966,0.1112 0.29841,0.091 0.29283,-0.029 0.4982,-0.044 0.59102,0.1445 0.45853,0.9338 -0.71804,2.5851 -1.37257,2.4313 -0.19522,-0.046 -0.2284,-0.2398 -0.29441,-0.4494 -0.072,-0.2288 -0.33167,-0.1964 -0.33167,-0.1964 l -2.07817,10e-5 v 1 h -8.11674 v -1 l -2.3001,-10e-5 v 1 l -8.1168,10e-5 v -1 l -2.3001,-10e-5 v 1 l -8.11737,10e-5 8e-5,-0.9999 -2.30019,-2e-4 v 1 l -8.116789,-5e-4 8e-5,-0.9993 -2.30019,-2e-4 v 0.9996 h -8.116851 v -0.9996 l -2.300105,10e-5 v 0.9994 h -8.116852 l -10e-7,-0.9994 -2.300105,-10e-5 8.6e-5,0.9997 -8.116883,-2e-4 v -0.9994 l -2.3001,-10e-5 8e-5,0.9997 -8.11693,-1e-4 v -0.9996 l -2.30002,2e-4 -9e-5,0.9993 h -8.11685 v -0.9994 l -2.30011,-10e-5 v 0.9996 h -8.11673 l -6e-5,-0.9995 -2.30011,-10e-5 6e-5,0.9997 -8.11737,-1e-4 3e-5,-0.9994 -2.3002,-2e-4 6e-5,0.9997 -8.11676,-5e-4 -3e-5,-0.999 h -2.30016 l -6e-5,0.9989 h -8.11674 v -0.999 l -2.3001,10e-5 v 0.999 h -8.11686 v -0.999 h -2.30004 v 0.999 h -8.11686 v -0.999 h -2.07765 c -0.2583,0.092 -0.27352,0.125 -0.42283,0.3958 -0.0909,0.1575 -0.0929,0.2509 -0.38641,0.2347 -0.70965,-0.039 -1.71705,-1.6384 -1.33126,-2.307 0.12494,-0.2174 0.25868,-0.1843 0.37129,-0.1879 0.19942,-0.01 0.39968,0.01 0.57995,-0.1519 l 1.03903,-1.7999 -0.86602,-0.5 4.05842,-7.0294 0.86617,0.5 1.15008,-1.992 -0.86602,-0.5 4.05823,-7.0293 0.86602,0.5 1.15022,-1.992 -0.86602,-0.5 4.05851,-7.0298 0.86603,0.5 1.15022,-1.992 -0.86602,-0.5 4.05883,-7.0291 0.86542,0.4998 1.15022,-1.992 -0.86576,-0.4997 4.05857,-7.0294 0.86562,0.4997 1.14988,-1.9919 -0.86542,-0.4998 4.05842,-7.0294 0.86543,0.4998 1.15022,-1.992 -0.86576,-0.4997 4.05842,-7.0294 0.86565,0.4999 1.15014,-1.9921 -0.86568,-0.4998 4.05834,-7.0293 0.86577,0.4997 1.15002,-1.9919 -0.86556,-0.4998 4.05842,-7.0294 0.86543,0.4998 1.15022,-1.992 -0.86563,-0.4997 4.05843,-7.0294 0.86542,0.4998 1.15017,-1.9919 -0.86571,-0.4998 4.05886,-7.0299 0.86556,0.4998 1.15008,-1.992 -0.86576,-0.4997 4.05892,-7.0292 0.86516,0.4995 1.14999,-1.9919 -0.86516,-0.4995 4.05857,-7.0294 0.86516,0.4995 1.14988,-1.9919 -0.86516,-0.4995 4.05857,-7.0294 0.86516,0.4995 1.15002,-1.9919 -0.86521,-0.4996 4.05848,-7.0293 0.86516,0.4995 1.06472,-1.8446 c 0,0 0.0818,-0.1419 -0.16691,-0.289 -0.33042,-0.2524 -0.34838,-0.6064 0.20283,-0.7293 0.94813,-0.2114 1.56824,-0.061 2.21997,0.069 0.42973,0.2831 -0.0619,0.5545 -0.0619,0.5545 -0.147,0.135 0.0199,0.252 0.11355,0.5038 l 1.00349,1.7381 0.86615,-0.5 4.0586,7.0297 -0.86608,0.4999 1.15007,1.992 0.86603,-0.5 4.058431,7.0294 -0.865968,0.4999 1.149966,1.992 0.866023,-0.5 4.058717,7.0299 -0.866084,0.4999 1.150077,1.992 0.866028,-0.5 4.058439,7.0294 -0.865563,0.4998 1.150026,1.9919 0.86562,-0.4997 4.058424,7.0294 -0.86562,0.4997 1.150083,1.992 0.865563,-0.4998 4.058429,7.0294 -0.865736,0.4997 1.150086,1.992 0.86556,-0.4998 4.058419,7.0294 -0.865559,0.4998 1.150029,1.9919 0.86562,-0.4997 4.05848,7.0293 -0.86568,0.4998 1.15003,1.9919 0.86562,-0.4997 4.05842,7.0294 -0.86562,0.4997 1.15008,1.992 0.86557,-0.4998 4.05842,7.0294 -0.8655,0.4997 1.14996,1.992 0.86563,-0.4997 4.05865,7.0298 -0.86562,0.4997 1.15008,1.992 0.86568,-0.4998 4.05791,7.0297 -0.86516,0.4995 1.15002,1.9919 0.86516,-0.4995 4.05843,7.0294 -0.86516,0.4995 1.15014,1.9919 0.86516,-0.4995 4.05831,7.0294 -0.86516,0.4995 1.15008,1.992 0.86516,-0.4995 z m -78.51751,-130.6103 c -0.0549,-0.095 -0.17509,-0.1633 -0.32111,-0.1624 l -2.40328,2e-4 c -0.14549,-4e-4 -0.26892,0.066 -0.32117,0.1621 -0.0174,0.032 -0.0271,0.067 -0.0265,0.104 l -1.2e-4,7.2852 c 6.1e-4,0.037 0.0104,0.072 0.0266,0.104 0.0548,0.095 0.17686,0.1623 0.3212,0.1624 l -5.7e-4,-8e-4 2.40437,3e-4 c 0.19314,10e-5 0.34836,-0.1183 0.34825,-0.2659 l -4.6e-4,-7.285 c -5.6e-4,-0.037 -0.009,-0.072 -0.0266,-0.104 z m 75.42868,130.5983 -4.6e-4,-8e-4 c -0.0179,-0.031 -0.0439,-0.056 -0.0762,-0.074 l -6.30911,-3.6433 c -0.12818,-0.074 -0.30796,0 -0.40434,0.169 l -1.2021,2.0819 c -0.0977,0.1676 -0.0715,0.3624 0.0562,0.4354 l 6.41586,3.6568 c 0.10681,0.015 0.22641,-0.058 0.29852,-0.1839 l 1.2021,-2.0819 2.3e-4,-8e-4 c 0.0721,-0.1251 0.0738,-0.2638 0.0195,-0.3579 z"
         style="opacity:1;vector-effect:none;fill:none;fill-opacity:0.68382353;fill-rule:evenodd;stroke:#0000ff;stroke-width:0.09999996;stroke-linecap:round;stroke-linejoin:round;stroke-miterlimit:4;stroke-dasharray:none;stroke-dashoffset:0;stroke-opacity:1"
         id="path3914" />
      <path
         sodipodi:nodetypes="cccccccccccccccccccccccccccccccccccccccccccccccccccccccccccccccccccccccccssssccccccccccccccccccccccccccccccccccccccccccccccccccccccccccccccsccscccccccccccccccccccccccccccccccccccccccccccccccccccccccccccccccsccccccccccccccccccccsccccccccccc"
         inkscape:connector-curvature="0"
         d="m -270.29309,-1523.2834 c -0.0543,-0.094 -0.0539,-0.2333 0.0198,-0.3593 l 1.20193,-2.0812 c 0.0722,-0.1263 0.19163,-0.1998 0.30097,-0.1971 0.0364,0 0.0716,0.01 0.10331,0.029 l 6.30945,3.6427 c 0.0318,0.019 0.0571,0.045 0.0768,0.075 0.0549,0.095 0.0521,0.2341 -0.0198,0.3593 l -5e-4,-9e-4 -1.20187,2.0825 c -0.0964,0.1672 -0.27673,0.2425 -0.40455,0.1685 l -6.30871,-3.6428 c -0.0318,-0.019 -0.0577,-0.044 -0.0768,-0.075 z m 84.02155,126.266 -0.86608,-0.4999 1.15007,-1.992 0.86603,0.5 m 4.05843,-7.0294 -0.86597,-0.4999 1.14997,-1.992 0.86602,0.5 m 4.05872,-7.0299 -0.86608,-0.4999 1.15007,-1.992 0.86603,0.5 m 4.05844,-7.0294 -0.86556,-0.4998 1.15002,-1.9919 0.86562,0.4997 m 4.05843,-7.0294 -0.86562,-0.4997 1.15008,-1.992 0.86556,0.4998 m 4.05843,-7.0294 -0.86574,-0.4997 1.15009,-1.992 0.86556,0.4998 m 4.05842,-7.0294 -0.86556,-0.4998 1.15003,-1.9919 0.86562,0.4997 m 4.05848,-7.0293 -0.86568,-0.4998 1.15003,-1.9919 0.86562,0.4997 m 4.05842,-7.0294 -0.86562,-0.4997 1.15008,-1.992 0.86557,0.4998 m 4.05842,-7.0294 -0.8655,-0.4997 1.14996,-1.992 0.86563,0.4997 m 4.05865,-7.0298 -0.86562,-0.4997 1.15008,-1.992 0.86568,0.4998 m 4.05791,-7.0297 -0.86516,-0.4995 1.15002,-1.9919 0.86516,0.4995 m 4.05843,-7.0294 -0.86516,-0.4995 1.15014,-1.9919 0.86516,0.4995 m 4.05831,-7.0294 -0.86516,-0.4995 1.15008,-1.992 0.86516,0.4995 m 4.06113,-7.0276 -0.8651,-0.4996 1.03582,-1.7941 c 0.10479,-0.2115 0.0966,-0.1112 0.29841,-0.091 0.29283,0.029 0.4982,0.044 0.59102,-0.1445 0.45853,-0.9338 -0.71804,-2.5851 -1.37257,-2.4313 -0.19522,0.046 -0.2284,0.2398 -0.29441,0.4494 -0.072,0.2288 -0.33167,0.1964 -0.33167,0.1964 l -2.07817,-10e-5 v -1 h -8.11674 v 1 l -2.3001,10e-5 v -1 l -8.1168,-10e-5 v 1 l -2.3001,10e-5 v -1 l -8.11737,-10e-5 8e-5,0.9999 -2.30019,2e-4 v -1 l -8.11679,5e-4 8e-5,0.9993 -2.30019,2e-4 v -0.9996 h -8.11685 v 0.9996 l -2.3001,-10e-5 v -0.9994 h -8.11686 v 0.9994 l -2.3001,10e-5 8e-5,-0.9997 -8.11688,2e-4 v 0.9994 l -2.3001,10e-5 8e-5,-0.9997 -8.11693,10e-5 v 0.9996 l -2.30003,-2e-4 -8e-5,-0.9993 h -8.11685 v 0.9994 l -2.30011,10e-5 v -0.9996 h -8.11673 l -6e-5,0.9995 -2.30011,10e-5 6e-5,-0.9997 -8.11737,10e-5 3e-5,0.9994 -2.3002,2e-4 6e-5,-0.9997 -8.11676,5e-4 -3e-5,0.999 h -2.30016 l -6e-5,-0.9989 h -8.11674 v 0.999 l -2.30011,-10e-5 v -0.999 h -8.11685 v 0.999 h -2.30005 v -0.999 h -8.11685 v 0.999 h -2.07765 c -0.2583,-0.092 -0.27352,-0.125 -0.42283,-0.3958 -0.091,-0.1575 -0.0929,-0.2509 -0.38642,-0.2347 -0.70964,0.039 -1.71704,1.6384 -1.33126,2.307 0.12494,0.2174 0.25869,0.1843 0.3713,0.1879 0.19942,0.01 0.39967,-0.01 0.57995,0.1519 l 1.03903,1.7999 -0.86602,0.5 4.05842,7.0294 0.86617,-0.5 1.15008,1.992 -0.86603,0.5 4.05823,7.0293 0.86603,-0.5 1.15022,1.992 -0.86603,0.5 4.05852,7.0298 0.86603,-0.5 1.15022,1.992 -0.86603,0.5 4.05883,7.0291 0.86543,-0.4998 1.15022,1.992 -0.86576,0.4997 4.05856,7.0294 0.86562,-0.4997 1.14989,1.9919 -0.86542,0.4998 4.05842,7.0294 0.86543,-0.4998 1.15022,1.992 -0.86576,0.4997 4.05842,7.0294 0.86565,-0.4999 1.15014,1.9921 -0.86568,0.4998 4.05834,7.0293 0.86577,-0.4997 1.15002,1.9919 -0.86556,0.4998 4.05841,7.0294 0.86544,-0.4998 1.15022,1.992 -0.86563,0.4997 4.05843,7.0294 0.86542,-0.4998 1.15017,1.9919 -0.86571,0.4998 4.05886,7.0299 0.86556,-0.4998 1.15008,1.992 -0.86576,0.4997 4.05892,7.0292 0.86516,-0.4995 1.14999,1.9919 -0.86516,0.4995 4.05857,7.0294 0.86516,-0.4995 1.14988,1.9919 -0.86516,0.4995 4.05857,7.0294 0.86516,-0.4995 1.15002,1.9919 -0.86521,0.4996 4.05848,7.0293 0.86516,-0.4995 1.06472,1.8446 c 0,0 0.0818,0.1419 -0.16691,0.289 -0.33042,0.2524 -0.34838,0.6064 0.20283,0.7293 0.94813,0.2114 1.56824,0.061 2.21997,-0.069 0.42973,-0.2831 -0.0619,-0.5545 -0.0619,-0.5545 -0.147,-0.135 0.0199,-0.252 0.11355,-0.5038 l 1.00349,-1.7381 0.86615,0.5 m -1.53766,-2.7174 c -0.0549,0.095 -0.1751,0.1633 -0.32111,0.1624 l -2.40328,-2e-4 c -0.14549,4e-4 -0.26892,-0.066 -0.32117,-0.1621 -0.0174,-0.032 -0.0271,-0.067 -0.0265,-0.104 l -1.2e-4,-7.2852 c 6.1e-4,-0.037 0.0104,-0.072 0.0266,-0.104 0.0548,-0.095 0.17686,-0.1623 0.3212,-0.1624 l -5.7e-4,8e-4 2.40437,-3e-4 c 0.19314,-10e-5 0.34836,0.1183 0.34825,0.2659 l -4.6e-4,7.285 c -5.6e-4,0.037 -0.009,0.072 -0.0266,0.104 z m 75.42868,-130.5983 -4.6e-4,8e-4 c -0.0179,0.031 -0.0439,0.056 -0.0762,0.074 l -6.30911,3.6433 c -0.12818,0.074 -0.30796,0 -0.40434,-0.169 l -1.2021,-2.0819 c -0.0977,-0.1676 -0.0715,-0.3624 0.0562,-0.4354 l 6.41586,-3.6568 c 0.10681,-0.015 0.22641,0.058 0.29852,0.1839 l 1.2021,2.0819 2.3e-4,8e-4 c 0.0721,0.1251 0.0738,0.2638 0.0195,0.3579 z"
         style="opacity:1;vector-effect:none;fill:none;fill-opacity:0.68382353;fill-rule:evenodd;stroke:#0000ff;stroke-width:0.09999996;stroke-linecap:round;stroke-linejoin:round;stroke-miterlimit:4;stroke-dasharray:none;stroke-dashoffset:0;stroke-opacity:1"
         id="path3916" />
      <path
         id="path3918"
         style="opacity:1;vector-effect:none;fill:none;fill-opacity:0.68382353;fill-rule:evenodd;stroke:#0000ff;stroke-width:0.09999996;stroke-linecap:round;stroke-linejoin:round;stroke-miterlimit:4;stroke-dasharray:none;stroke-dashoffset:0;stroke-opacity:1"
         d="m -270.29309,-1533.976 c -0.0543,0.094 -0.0539,0.2333 0.0198,0.3593 l 1.20193,2.0812 c 0.0722,0.1263 0.19163,0.1998 0.30097,0.1971 0.0364,0 0.0716,-0.01 0.10331,-0.029 l 6.30945,-3.6427 c 0.0318,-0.019 0.0571,-0.045 0.0768,-0.075 0.0549,-0.095 0.0521,-0.2341 -0.0198,-0.3593 l -5e-4,9e-4 -1.20187,-2.0825 c -0.0964,-0.1672 -0.27673,-0.2425 -0.40455,-0.1685 l -6.30871,3.6428 c -0.0318,0.019 -0.0577,0.044 -0.0768,0.075 z m 84.02155,-126.266 -0.86608,0.4999 1.15007,1.992 0.86603,-0.5 m 4.05843,7.0294 -0.86597,0.4999 1.14997,1.992 0.86602,-0.5 m 4.05872,7.0299 -0.86609,0.4999 1.15008,1.992 0.86603,-0.5 m 4.05844,7.0294 -0.86556,0.4998 1.15002,1.9919 0.86562,-0.4997 m 4.05843,7.0294 -0.86562,0.4997 1.15008,1.992 0.86556,-0.4998 m 4.05843,7.0294 -0.86573,0.4997 1.15008,1.992 0.86556,-0.4998 m 4.05842,7.0294 -0.86556,0.4998 1.15003,1.9919 0.86562,-0.4997 m 4.05848,7.0293 -0.86568,0.4998 1.15003,1.9919 0.86562,-0.4997 m 4.05842,7.0294 -0.86562,0.4997 1.15008,1.992 0.86557,-0.4998 m 4.05842,7.0294 -0.8655,0.4997 1.14996,1.992 0.86563,-0.4997 m 4.05865,7.0298 -0.86562,0.4997 1.15008,1.992 0.86568,-0.4998 m 4.05791,7.0297 -0.86516,0.4995 1.15002,1.9919 0.86516,-0.4995 m 4.05843,7.0294 -0.86516,0.4995 1.15014,1.9919 0.86516,-0.4995 m 4.05831,7.0294 -0.86516,0.4995 1.15008,1.992 0.86516,-0.4995 m 4.06113,7.0276 -0.8651,0.4996 1.03582,1.7941 c 0.10479,0.2115 0.0966,0.1112 0.29841,0.091 0.29283,-0.029 0.4982,-0.044 0.59102,0.1445 0.45853,0.9338 -0.71804,2.5851 -1.37257,2.4313 -0.19522,-0.046 -0.2284,-0.2398 -0.29441,-0.4494 -0.072,-0.2288 -0.33167,-0.1964 -0.33167,-0.1964 l -2.07817,10e-5 v 1 m -8.11674,0 v -1 l -2.3001,-10e-5 v 1 m -8.1168,10e-5 v -1 l -2.3001,-10e-5 v 1 m -8.11737,10e-5 8e-5,-0.9999 -2.30019,-2e-4 v 1 m -8.11679,-5e-4 8e-5,-0.9993 -2.30019,-2e-4 v 0.9996 m -8.11685,0 v -0.9996 l -2.30011,10e-5 v 0.9994 m -8.11685,0 v -0.9994 l -2.3001,-10e-5 8e-5,0.9997 m -8.11688,-2e-4 v -0.9994 l -2.3001,-10e-5 8e-5,0.9997 m -8.11693,-10e-5 v -0.9996 l -2.30002,2e-4 -9e-5,0.9993 m -8.11685,0 v -0.9994 l -2.30011,-10e-5 v 0.9996 m -8.11673,0 -6e-5,-0.9995 -2.30011,-10e-5 6e-5,0.9997 m -8.11737,-10e-5 3e-5,-0.9994 -2.3002,-2e-4 6e-5,0.9997 m -8.11676,-5e-4 -3e-5,-0.999 h -2.30016 l -6e-5,0.9989 m -8.11674,0 v -0.999 l -2.30011,10e-5 v 0.999 m -8.11685,0 v -0.999 h -2.30005 v 0.999 m -8.11685,0 v -0.999 h -2.07764 c -0.2583,0.092 -0.27352,0.125 -0.42283,0.3958 -0.091,0.1575 -0.0929,0.2509 -0.38642,0.2347 -0.70964,-0.039 -1.71704,-1.6384 -1.33126,-2.307 0.12494,-0.2174 0.25869,-0.1843 0.3713,-0.1879 0.19942,-0.01 0.39967,0.01 0.57995,-0.1519 l 1.03903,-1.7999 -0.86602,-0.5 4.05841,-7.0294 0.86617,0.5 1.15008,-1.992 -0.86603,-0.5 4.05823,-7.0293 0.86603,0.5 1.15022,-1.992 -0.86603,-0.5 4.05852,-7.0298 0.86603,0.5 1.15022,-1.992 -0.86603,-0.5 4.05883,-7.0291 0.86543,0.4998 1.15022,-1.992 -0.86576,-0.4997 4.05856,-7.0294 0.86562,0.4997 1.14989,-1.9919 -0.86542,-0.4998 4.05842,-7.0294 0.86543,0.4998 1.15022,-1.992 -0.86576,-0.4997 4.05842,-7.0294 0.86565,0.4999 1.15014,-1.9921 -0.86568,-0.4998 4.05834,-7.0293 0.86577,0.4997 1.15002,-1.9919 -0.86556,-0.4998 4.05842,-7.0294 0.86543,0.4998 1.15022,-1.992 -0.86563,-0.4997 4.05843,-7.0294 0.86542,0.4998 1.15017,-1.9919 -0.86571,-0.4998 4.05886,-7.0299 0.86556,0.4998 1.15008,-1.992 -0.86576,-0.4997 4.05892,-7.0292 0.86516,0.4995 1.14999,-1.9919 -0.86516,-0.4995 4.05857,-7.0294 0.86516,0.4995 1.14988,-1.9919 -0.86516,-0.4995 4.05857,-7.0294 0.86516,0.4995 1.15002,-1.9919 -0.86521,-0.4996 4.05848,-7.0293 0.86516,0.4995 1.06472,-1.8446 c 0,0 0.0818,-0.1419 -0.16691,-0.289 -0.33042,-0.2524 -0.34838,-0.6064 0.20283,-0.7293 0.94813,-0.2114 1.56824,-0.061 2.21997,0.069 0.42973,0.2831 -0.0619,0.5545 -0.0619,0.5545 -0.147,0.135 0.0199,0.252 0.11355,0.5038 l 1.00349,1.7381 0.86615,-0.5 m -1.53766,2.7174 c -0.0549,-0.095 -0.17509,-0.1633 -0.32111,-0.1624 l -2.40328,2e-4 c -0.14549,-4e-4 -0.26892,0.066 -0.32117,0.1621 -0.0174,0.032 -0.0271,0.067 -0.0265,0.104 l -1.2e-4,7.2852 c 6.1e-4,0.037 0.0104,0.072 0.0266,0.104 0.0548,0.095 0.17686,0.1623 0.3212,0.1624 l -5.7e-4,-8e-4 2.40437,3e-4 c 0.19314,10e-5 0.34836,-0.1183 0.34825,-0.2659 l -4.6e-4,-7.285 c -5.6e-4,-0.037 -0.009,-0.072 -0.0266,-0.104 z m 75.42868,130.5983 -4.6e-4,-8e-4 c -0.0179,-0.031 -0.0439,-0.056 -0.0762,-0.074 l -6.30911,-3.6433 c -0.12818,-0.074 -0.30796,0 -0.40434,0.169 l -1.2021,2.0819 c -0.0977,0.1676 -0.0715,0.3624 0.0562,0.4354 l 6.41586,3.6568 c 0.10681,0.015 0.22641,-0.058 0.29852,-0.1839 l 1.2021,-2.0819 2.3e-4,-8e-4 c 0.0721,-0.1251 0.0738,-0.2638 0.0195,-0.3579 z"
         inkscape:connector-curvature="0"
         sodipodi:nodetypes="cccccccccccccccccccccccccccccccccccccccccccccccccccccccccccccccccccccccccssssccccccccccccccccccccccccccccccccccccccccccccccccccccccccccccccsccscccccccccccccccccccccccccccccccccccccccccccccccccccccccccccccccsccccccccccccccccccccsccccccccccc" />
      <path
         id="path3930"
         style="opacity:1;vector-effect:none;fill:none;fill-opacity:0.68382353;fill-rule:evenodd;stroke:#0000ff;stroke-width:0.09999996;stroke-linecap:round;stroke-linejoin:round;stroke-miterlimit:4;stroke-dasharray:none;stroke-dashoffset:0;stroke-opacity:1"
         d="m 49.69434,-1523.2857 c 0.0543,-0.094 0.0539,-0.2333 -0.0198,-0.3593 l -1.20193,-2.0812 c -0.0722,-0.1263 -0.19163,-0.1998 -0.30097,-0.1971 -0.0364,0 -0.0716,0.01 -0.10331,0.029 l -6.30945,3.6427 c -0.0318,0.019 -0.0571,0.045 -0.0768,0.075 -0.0549,0.095 -0.0521,0.2341 0.0198,0.3593 l 5e-4,-9e-4 1.20187,2.0825 c 0.0964,0.1672 0.27673,0.2425 0.40455,0.1685 l 6.30871,-3.6428 c 0.0318,-0.019 0.0577,-0.044 0.0768,-0.075 z m -84.02155,126.266 0.86608,-0.4999 -1.15007,-1.992 -0.86603,0.5 m -4.05843,-7.0294 0.86597,-0.4999 -1.14997,-1.992 -0.86602,0.5 m -4.05872,-7.0299 0.86608,-0.4999 -1.15007,-1.992 -0.86603,0.5 m -4.05844,-7.0294 0.86556,-0.4998 -1.15002,-1.9919 -0.86562,0.4997 m -4.05843,-7.0294 0.86562,-0.4997 -1.15008,-1.992 -0.86556,0.4998 m -4.05843,-7.0294 0.86574,-0.4997 -1.15009,-1.992 -0.86556,0.4998 m -4.05842,-7.0294 0.86556,-0.4998 -1.15003,-1.9919 -0.86562,0.4997 m -4.05848,-7.0293 0.86568,-0.4998 -1.15003,-1.9919 -0.86562,0.4997 m -4.05842,-7.0294 0.86562,-0.4997 -1.15008,-1.992 -0.86557,0.4998 m -4.05842,-7.0294 0.8655,-0.4997 -1.14996,-1.992 -0.86563,0.4997 m -4.058648,-7.0298 0.865618,-0.4997 -1.150078,-1.992 -0.86568,0.4998 m -4.05791,-7.0297 0.86516,-0.4995 -1.15002,-1.9919 -0.86516,0.4995 m -4.05843,-7.0294 0.86516,-0.4995 -1.15014,-1.9919 -0.86516,0.4995 m -4.058312,-7.0294 0.86516,-0.4995 -1.15008,-1.992 -0.86516,0.4995 m -4.06113,-7.0276 0.8651,-0.4996 -1.03582,-1.7941 c -0.10479,-0.2115 -0.0966,-0.1112 -0.29841,-0.091 -0.29283,0.029 -0.4982,0.044 -0.59102,-0.1445 -0.45853,-0.9338 0.71804,-2.5851 1.37257,-2.4313 0.19522,0.046 0.2284,0.2398 0.29441,0.4494 0.072,0.2288 0.33167,0.1964 0.33167,0.1964 l 2.07817,-10e-5 v -1 h 8.116742 v 1 l 2.3001,10e-5 v -1 l 8.116798,-10e-5 v 1 l 2.3001,10e-5 v -1 l 8.11737,-10e-5 -8e-5,0.9999 2.30019,2e-4 v -1 l 8.11679,5e-4 -8e-5,0.9993 2.30019,2e-4 v -0.9996 h 8.11685 v 0.9996 l 2.3001,-10e-5 v -0.9994 h 8.11686 v 0.9994 l 2.3001,10e-5 -8e-5,-0.9997 8.11688,2e-4 v 0.9994 l 2.3001,10e-5 -8e-5,-0.9997 8.11693,10e-5 v 0.9996 l 2.30003,-2e-4 8e-5,-0.9993 h 8.11685 v 0.9994 l 2.30011,10e-5 v -0.9996 h 8.11673 l 6e-5,0.9995 2.30011,10e-5 -6e-5,-0.9997 8.11737,10e-5 -3e-5,0.9994 2.3002,2e-4 -6e-5,-0.9997 8.11676,5e-4 3e-5,0.999 h 2.30016 l 6e-5,-0.9989 h 8.11674 v 0.999 l 2.30011,-10e-5 v -0.999 h 8.11685 v 0.999 h 2.30005 v -0.999 h 8.11685 v 0.999 h 2.07765 c 0.2583,-0.092 0.27352,-0.125 0.42283,-0.3958 0.091,-0.1575 0.0929,-0.2509 0.38642,-0.2347 0.70964,0.039 1.71704,1.6384 1.33126,2.307 -0.12494,0.2174 -0.25869,0.1843 -0.3713,0.1879 -0.19942,0.01 -0.39967,-0.01 -0.57995,0.1519 l -1.03903,1.7999 0.86602,0.5 -4.05842,7.0294 -0.86617,-0.5 -1.15008,1.992 0.86603,0.5 -4.05823,7.0293 -0.86603,-0.5 -1.15022,1.992 0.86603,0.5 -4.05852,7.0298 -0.86603,-0.5 -1.15022,1.992 0.86603,0.5 -4.05883,7.0291 -0.86543,-0.4998 -1.15022,1.992 0.86576,0.4997 -4.05856,7.0294 -0.86562,-0.4997 -1.14989,1.9919 0.86542,0.4998 -4.05842,7.0294 -0.86543,-0.4998 -1.15022,1.992 0.86576,0.4997 -4.05842,7.0294 -0.86565,-0.4999 -1.15014,1.9921 0.86568,0.4998 -4.05834,7.0293 -0.86577,-0.4997 -1.15002,1.9919 0.86556,0.4998 -4.05841,7.0294 -0.86544,-0.4998 -1.1502202,1.992 0.8656302,0.4997 -4.05843,7.0294 -0.86542,-0.4998 -1.15017,1.9919 0.86571,0.4998 -4.0588599,7.0299 -0.86556,-0.4998 -1.1500801,1.992 0.8657601,0.4997 -4.0589201,7.0292 -0.86516,-0.4995 -1.14999,1.9919 0.86516,0.4995 -4.05857,7.0294 -0.86516,-0.4995 -1.14988,1.9919 0.86516,0.4995 -4.05857,7.0294 -0.86516,-0.4995 -1.15002,1.9919 0.86521,0.4996 -4.05848,7.0293 -0.86516,-0.4995 -1.06472,1.8446 c 0,0 -0.0818,0.1419 0.16691,0.289 0.33042,0.2524 0.34838,0.6064 -0.20283,0.7293 -0.94813,0.2114 -1.56824,0.061 -2.21997,-0.069 -0.42973,-0.2831 0.0619,-0.5545 0.0619,-0.5545 0.147,-0.135 -0.0199,-0.252 -0.11355,-0.5038 l -1.00349,-1.7381 -0.86615,0.5 m 1.53766,-2.7174 c 0.0549,0.095 0.1751,0.1633 0.32111,0.1624 l 2.40328,-2e-4 c 0.14549,4e-4 0.26892,-0.066 0.32117,-0.1621 0.0174,-0.032 0.0271,-0.067 0.0265,-0.104 l 1.2e-4,-7.2852 c -6.1e-4,-0.037 -0.0104,-0.072 -0.0266,-0.104 -0.0548,-0.095 -0.17686,-0.1623 -0.3212,-0.1624 l 5.7e-4,8e-4 -2.40437,-3e-4 c -0.19314,-10e-5 -0.34836,0.1183 -0.34825,0.2659 l 4.6e-4,7.285 c 5.6e-4,0.037 0.009,0.072 0.0266,0.104 z m -75.42868,-130.5983 4.6e-4,8e-4 c 0.0179,0.031 0.0439,0.056 0.0762,0.074 l 6.309112,3.6433 c 0.12818,0.074 0.30796,0 0.40434,-0.169 l 1.2021,-2.0819 c 0.0977,-0.1676 0.0715,-0.3624 -0.0562,-0.4354 l -6.415862,-3.6568 c -0.10681,-0.015 -0.22641,0.058 -0.29852,0.1839 l -1.2021,2.0819 -2.3e-4,8e-4 c -0.0721,0.1251 -0.0738,0.2638 -0.0195,0.3579 z"
         inkscape:connector-curvature="0"
         sodipodi:nodetypes="cccccccccccccccccccccccccccccccccccccccccccccccccccccccccccccccccccccccccssssccccccccccccccccccccccccccccccccccccccccccccccccccccccccccccccsccscccccccccccccccccccccccccccccccccccccccccccccccccccccccccccccccsccccccccccccccccccccsccccccccccc" />
      <path
         sodipodi:nodetypes="cccccccccccccccccccccccccccccccccccccccccccccccccccccccccccccccccccccccccssssccccccccccccccccccccccccccccccccccccccccccccccccccccccccccccccsccscccccccccccccccccccccccccccccccccccccccccccccccccccccccccccccccsccccccccccccccccccccsccccccccccc"
         inkscape:connector-curvature="0"
         d="m 49.69434,-1533.9783 c 0.0543,0.094 0.0539,0.2333 -0.0198,0.3593 l -1.20193,2.0812 c -0.0722,0.1263 -0.19163,0.1998 -0.30097,0.1971 -0.0364,0 -0.0716,-0.01 -0.10331,-0.029 l -6.30945,-3.6427 c -0.0318,-0.019 -0.0571,-0.045 -0.0768,-0.075 -0.0549,-0.095 -0.0521,-0.2341 0.0198,-0.3593 l 5e-4,9e-4 1.20187,-2.0825 c 0.0964,-0.1672 0.27673,-0.2425 0.40455,-0.1685 l 6.30871,3.6428 c 0.0318,0.019 0.0577,0.044 0.0768,0.075 z m -84.02155,-126.266 0.86608,0.4999 -1.15007,1.992 -0.86603,-0.5 m -4.05843,7.0294 0.86597,0.4999 -1.14997,1.992 -0.86602,-0.5 m -4.05872,7.0299 0.86609,0.4999 -1.15008,1.992 -0.86603,-0.5 m -4.05844,7.0294 0.86556,0.4998 -1.15002,1.9919 -0.86562,-0.4997 m -4.05843,7.0294 0.86562,0.4997 -1.15008,1.992 -0.86556,-0.4998 m -4.05843,7.0294 0.86573,0.4997 -1.15008,1.992 -0.86556,-0.4998 m -4.05842,7.0294 0.86556,0.4998 -1.15003,1.9919 -0.86562,-0.4997 m -4.05848,7.0293 0.86568,0.4998 -1.15003,1.9919 -0.86562,-0.4997 m -4.05842,7.0294 0.86562,0.4997 -1.15008,1.992 -0.86557,-0.4998 m -4.05842,7.0294 0.8655,0.4997 -1.14996,1.992 -0.86563,-0.4997 m -4.058648,7.0298 0.865618,0.4997 -1.150078,1.992 -0.86568,-0.4998 m -4.05791,7.0297 0.86516,0.4995 -1.15002,1.9919 -0.86516,-0.4995 m -4.05843,7.0294 0.86516,0.4995 -1.15014,1.9919 -0.86516,-0.4995 m -4.058312,7.0294 0.86516,0.4995 -1.15008,1.992 -0.86516,-0.4995 m -4.06113,7.0276 0.8651,0.4996 -1.03582,1.7941 c -0.10479,0.2115 -0.0966,0.1112 -0.29841,0.091 -0.29283,-0.029 -0.4982,-0.044 -0.59102,0.1445 -0.45853,0.9338 0.71804,2.5851 1.37257,2.4313 0.19522,-0.046 0.2284,-0.2398 0.29441,-0.4494 0.072,-0.2288 0.33167,-0.1964 0.33167,-0.1964 l 2.07817,10e-5 v 1 m 8.116742,0 v -1 l 2.3001,-10e-5 v 1 m 8.116798,10e-5 v -1 l 2.3001,-10e-5 v 1 m 8.11737,10e-5 -8e-5,-0.9999 2.30019,-2e-4 v 1 m 8.11679,-5e-4 -8e-5,-0.9993 2.30019,-2e-4 v 0.9996 m 8.11685,0 v -0.9996 l 2.30011,10e-5 v 0.9994 m 8.11685,0 v -0.9994 l 2.3001,-10e-5 -8e-5,0.9997 m 8.11688,-2e-4 v -0.9994 l 2.3001,-10e-5 -8e-5,0.9997 m 8.11693,-10e-5 v -0.9996 l 2.30002,2e-4 9e-5,0.9993 m 8.11685,0 v -0.9994 l 2.30011,-10e-5 v 0.9996 m 8.11673,0 6e-5,-0.9995 2.30011,-10e-5 -6e-5,0.9997 m 8.11737,-10e-5 -3e-5,-0.9994 2.3002,-2e-4 -6e-5,0.9997 m 8.11676,-5e-4 3e-5,-0.999 h 2.30016 l 6e-5,0.9989 m 8.11674,0 v -0.999 l 2.30011,10e-5 v 0.999 m 8.11685,0 v -0.999 h 2.30005 v 0.999 m 8.11685,0 v -0.999 h 2.07764 c 0.2583,0.092 0.27352,0.125 0.42283,0.3958 0.091,0.1575 0.0929,0.2509 0.38642,0.2347 0.70964,-0.039 1.71704,-1.6384 1.33126,-2.307 -0.12494,-0.2174 -0.25869,-0.1843 -0.3713,-0.1879 -0.19942,-0.01 -0.39967,0.01 -0.57995,-0.1519 l -1.03903,-1.7999 0.86602,-0.5 -4.05841,-7.0294 -0.86617,0.5 -1.15008,-1.992 0.86603,-0.5 -4.05823,-7.0293 -0.86603,0.5 -1.15022,-1.992 0.86603,-0.5 -4.05852,-7.0298 -0.86603,0.5 -1.15022,-1.992 0.86603,-0.5 -4.05883,-7.0291 -0.86543,0.4998 -1.15022,-1.992 0.86576,-0.4997 -4.05856,-7.0294 -0.86562,0.4997 -1.14989,-1.9919 0.86542,-0.4998 -4.05842,-7.0294 -0.86543,0.4998 -1.15022,-1.992 0.86576,-0.4997 -4.05842,-7.0294 -0.86565,0.4999 -1.15014,-1.9921 0.86568,-0.4998 -4.05834,-7.0293 -0.86577,0.4997 -1.15002,-1.9919 0.86556,-0.4998 -4.05842,-7.0294 -0.86543,0.4998 -1.1502202,-1.992 0.8656302,-0.4997 -4.05843,-7.0294 -0.86542,0.4998 -1.15017,-1.9919 0.86571,-0.4998 -4.0588599,-7.0299 -0.86556,0.4998 -1.1500801,-1.992 0.8657601,-0.4997 -4.0589201,-7.0292 -0.86516,0.4995 -1.14999,-1.9919 0.86516,-0.4995 -4.05857,-7.0294 -0.86516,0.4995 -1.14988,-1.9919 0.86516,-0.4995 -4.05857,-7.0294 -0.86516,0.4995 -1.15002,-1.9919 0.86521,-0.4996 -4.05848,-7.0293 -0.86516,0.4995 -1.06472,-1.8446 c 0,0 -0.0818,-0.1419 0.16691,-0.289 0.33042,-0.2524 0.34838,-0.6064 -0.20283,-0.7293 -0.94813,-0.2114 -1.56824,-0.061 -2.21997,0.069 -0.42973,0.2831 0.0619,0.5545 0.0619,0.5545 0.147,0.135 -0.0199,0.252 -0.11355,0.5038 l -1.00349,1.7381 -0.86615,-0.5 m 1.53766,2.7174 c 0.0549,-0.095 0.17509,-0.1633 0.32111,-0.1624 l 2.40328,2e-4 c 0.14549,-4e-4 0.26892,0.066 0.32117,0.1621 0.0174,0.032 0.0271,0.067 0.0265,0.104 l 1.2e-4,7.2852 c -6.1e-4,0.037 -0.0104,0.072 -0.0266,0.104 -0.0548,0.095 -0.17686,0.1623 -0.3212,0.1624 l 5.7e-4,-8e-4 -2.40437,3e-4 c -0.19314,10e-5 -0.34836,-0.1183 -0.34825,-0.2659 l 4.6e-4,-7.285 c 5.6e-4,-0.037 0.009,-0.072 0.0266,-0.104 z m -75.42868,130.5983 4.6e-4,-8e-4 c 0.0179,-0.031 0.0439,-0.056 0.0762,-0.074 l 6.309112,-3.6433 c 0.12818,-0.074 0.30796,0 0.40434,0.169 l 1.2021,2.0819 c 0.0977,0.1676 0.0715,0.3624 -0.0562,0.4354 l -6.415862,3.6568 c -0.10681,0.015 -0.22641,-0.058 -0.29852,-0.1839 l -1.2021,-2.0819 -2.3e-4,-8e-4 c -0.0721,-0.1251 -0.0738,-0.2638 -0.0195,-0.3579 z"
         style="opacity:1;vector-effect:none;fill:none;fill-opacity:0.68382353;fill-rule:evenodd;stroke:#0000ff;stroke-width:0.09999996;stroke-linecap:round;stroke-linejoin:round;stroke-miterlimit:4;stroke-dasharray:none;stroke-dashoffset:0;stroke-opacity:1"
         id="path3932" />
      <path
         sodipodi:nodetypes="cccccccccccccccccccccccccccccccccccccccccccccccccccccccccccccccccccccccccssssccccccccccccccccccccccccccccccccccccccccccccccccccccccccccccccsccscccccccccccccccccccccccccccccccccccccccccccccccccccccccccccccccsccccccccccccccccccccsccccccccccc"
         inkscape:connector-curvature="0"
         d="m 132.78002,-1667.243 c 0.0543,-0.094 0.0539,-0.2333 -0.0198,-0.3593 l -1.20193,-2.0812 c -0.0722,-0.1263 -0.19163,-0.1998 -0.30097,-0.1971 -0.0364,0 -0.0716,0.01 -0.10331,0.029 l -6.30945,3.6427 c -0.0318,0.019 -0.0571,0.045 -0.0768,0.075 -0.0549,0.095 -0.0521,0.2341 0.0198,0.3593 l 5e-4,-9e-4 1.20187,2.0825 c 0.0964,0.1672 0.27673,0.2425 0.40455,0.1685 l 6.30871,-3.6428 c 0.0318,-0.019 0.0577,-0.044 0.0768,-0.075 z m -84.02155,126.266 0.86608,-0.4999 -1.15007,-1.992 -0.86603,0.5 m -4.05843,-7.0294 0.86597,-0.4999 -1.14997,-1.992 -0.86602,0.5 m -4.05872,-7.0299 0.86608,-0.4999 -1.15007,-1.992 -0.86603,0.5 m -4.05844,-7.0294 0.86556,-0.4998 -1.15002,-1.9919 -0.86562,0.4997 m -4.05843,-7.0294 0.86562,-0.4997 -1.15008,-1.992 -0.86556,0.4998 m -4.05843,-7.0294 0.86574,-0.4997 -1.15009,-1.992 -0.86556,0.4998 m -4.05842,-7.0294 0.86556,-0.4998 -1.15003,-1.9919 -0.86562,0.4997 m -4.05848,-7.0293 0.86568,-0.4998 -1.15003,-1.9919 -0.86562,0.4997 m -4.05842,-7.0294 0.86562,-0.4997 -1.15008,-1.992 -0.86557,0.4998 m -4.05842,-7.0294 0.8655,-0.4997 -1.14996,-1.992 -0.86563,0.4997 m -4.058648,-7.0298 0.865618,-0.4997 -1.150078,-1.992 -0.86568,0.4998 m -4.05791,-7.0297 0.86516,-0.4995 -1.15002,-1.9919 -0.86516,0.4995 m -4.05843,-7.0294 0.86516,-0.4995 -1.15014,-1.9919 -0.86516,0.4995 m -4.058312,-7.0294 0.86516,-0.4995 -1.15008,-1.992 -0.86516,0.4995 m -4.06113,-7.0276 0.8651,-0.4996 -1.03582,-1.7941 c -0.10479,-0.2115 -0.0966,-0.1112 -0.29841,-0.091 -0.29283,0.029 -0.4982,0.044 -0.59102,-0.1445 -0.45853,-0.9338 0.71804,-2.5851 1.37257,-2.4313 0.19522,0.046 0.2284,0.2398 0.29441,0.4494 0.072,0.2288 0.33167,0.1964 0.33167,0.1964 l 2.07817,-10e-5 v -1 h 8.116742 v 1 l 2.3001,10e-5 v -1 l 8.116798,-10e-5 v 1 l 2.3001,10e-5 v -1 l 8.11737,-10e-5 -8e-5,0.9999 2.30019,2e-4 v -1 l 8.11679,5e-4 -8e-5,0.9993 2.30019,2e-4 v -0.9996 h 8.11685 v 0.9996 l 2.3001,-10e-5 v -0.9994 h 8.11686 v 0.9994 l 2.3001,10e-5 -8e-5,-0.9997 8.11688,2e-4 v 0.9994 l 2.3001,10e-5 -8e-5,-0.9997 8.11693,10e-5 v 0.9996 l 2.30003,-2e-4 8e-5,-0.9993 h 8.11685 v 0.9994 l 2.30011,10e-5 v -0.9996 h 8.116727 l 6e-5,0.9995 2.30011,10e-5 -6e-5,-0.9997 8.11737,10e-5 -3e-5,0.9994 2.3002,2e-4 -6e-5,-0.9997 8.116763,5e-4 3e-5,0.999 h 2.30016 l 6e-5,-0.9989 h 8.11674 v 0.999 l 2.30011,-10e-5 v -0.999 h 8.11685 v 0.999 h 2.30005 v -0.999 h 8.11685 v 0.999 h 2.07765 c 0.2583,-0.092 0.27352,-0.125 0.42283,-0.3958 0.091,-0.1575 0.0929,-0.2509 0.38642,-0.2347 0.70964,0.039 1.71704,1.6384 1.33126,2.307 -0.12494,0.2174 -0.25869,0.1843 -0.3713,0.1879 -0.19942,0.01 -0.39967,-0.01 -0.57995,0.1519 l -1.03903,1.7999 0.86602,0.5 -4.05842,7.0294 -0.86617,-0.5 -1.15008,1.992 0.86603,0.5 -4.05823,7.0293 -0.86603,-0.5 -1.15022,1.992 0.86603,0.5 -4.05852,7.0298 -0.86603,-0.5 -1.15022,1.992 0.86603,0.5 -4.05883,7.0291 -0.86543,-0.4998 -1.15022,1.992 0.86576,0.4997 -4.05856,7.0294 -0.86562,-0.4997 -1.14989,1.9919 0.86542,0.4998 -4.05842,7.0294 -0.86543,-0.4998 -1.15022,1.992 0.86576,0.4997 -4.05842,7.0294 -0.865653,-0.4999 -1.15014,1.9921 0.86568,0.4998 -4.05834,7.0293 -0.86577,-0.4997 -1.15002,1.9919 0.86556,0.4998 -4.05841,7.0294 -0.86544,-0.4998 -1.15022,1.992 0.86563,0.4997 -4.05843,7.0294 -0.86542,-0.4998 -1.15017,1.9919 0.86571,0.4998 -4.05886,7.0299 -0.86556,-0.4998 -1.15008,1.992 0.86576,0.4997 -4.058917,7.0292 -0.86516,-0.4995 -1.14999,1.9919 0.86516,0.4995 -4.05857,7.0294 -0.86516,-0.4995 -1.14988,1.9919 0.86516,0.4995 -4.05857,7.0294 -0.86516,-0.4995 -1.15002,1.9919 0.86521,0.4996 -4.05848,7.0293 -0.86516,-0.4995 -1.06472,1.8446 c 0,0 -0.0818,0.1419 0.16691,0.289 0.33042,0.2524 0.34838,0.6064 -0.20283,0.7293 -0.94813,0.2114 -1.56824,0.061 -2.21997,-0.069 -0.42973,-0.2831 0.0619,-0.5545 0.0619,-0.5545 0.147,-0.135 -0.0199,-0.252 -0.11355,-0.5038 l -1.00349,-1.7381 -0.86615,0.5 m 1.53766,-2.7174 c 0.0549,0.095 0.1751,0.1633 0.32111,0.1624 l 2.40328,-2e-4 c 0.14549,4e-4 0.26892,-0.066 0.32117,-0.1621 0.0174,-0.032 0.0271,-0.067 0.0265,-0.104 l 1.2e-4,-7.2852 c -6.1e-4,-0.037 -0.0104,-0.072 -0.0266,-0.104 -0.0548,-0.095 -0.17686,-0.1623 -0.3212,-0.1624 l 5.7e-4,8e-4 -2.40437,-3e-4 c -0.19314,-10e-5 -0.34836,0.1183 -0.34825,0.2659 l 4.6e-4,7.285 c 5.6e-4,0.037 0.009,0.072 0.0266,0.104 z m -75.42868,-130.5983 4.6e-4,8e-4 c 0.0179,0.031 0.0439,0.056 0.0762,0.074 l 6.309112,3.6433 c 0.12818,0.074 0.30796,0 0.40434,-0.169 l 1.2021,-2.0819 c 0.0977,-0.1676 0.0715,-0.3624 -0.0562,-0.4354 l -6.415862,-3.6568 c -0.10681,-0.015 -0.22641,0.058 -0.29852,0.1839 l -1.2021,2.0819 -2.3e-4,8e-4 c -0.0721,0.1251 -0.0738,0.2638 -0.0195,0.3579 z"
         style="opacity:1;vector-effect:none;fill:none;fill-opacity:0.68382353;fill-rule:evenodd;stroke:#0000ff;stroke-width:0.09999996;stroke-linecap:round;stroke-linejoin:round;stroke-miterlimit:4;stroke-dasharray:none;stroke-dashoffset:0;stroke-opacity:1"
         id="path3946" />
      <path
         id="path3948"
         style="opacity:1;vector-effect:none;fill:none;fill-opacity:0.68382353;fill-rule:evenodd;stroke:#0000ff;stroke-width:0.09999996;stroke-linecap:round;stroke-linejoin:round;stroke-miterlimit:4;stroke-dasharray:none;stroke-dashoffset:0;stroke-opacity:1"
         d="m 132.77988,-1390.0207 c 0.0543,0.094 0.0539,0.2333 -0.0198,0.3593 l -1.20193,2.0812 c -0.0722,0.1263 -0.19163,0.1998 -0.30097,0.1971 -0.0364,0 -0.0716,-0.01 -0.10331,-0.029 l -6.30945,-3.6427 c -0.0318,-0.019 -0.0571,-0.045 -0.0768,-0.075 -0.0549,-0.095 -0.0521,-0.2341 0.0198,-0.3593 l 5e-4,9e-4 1.20187,-2.0825 c 0.0964,-0.1672 0.27673,-0.2425 0.40455,-0.1685 l 6.30871,3.6428 c 0.0318,0.019 0.0577,0.044 0.0768,0.075 z m -84.02155,-126.266 0.86608,0.4999 -1.15007,1.992 -0.86603,-0.5 m -4.05843,7.0294 0.86597,0.4999 -1.14997,1.992 -0.86602,-0.5 m -4.05872,7.0299 0.86608,0.4999 -1.15007,1.992 -0.86603,-0.5 m -4.05844,7.0294 0.86556,0.4998 -1.15002,1.9919 -0.86562,-0.4997 m -4.05843,7.0294 0.86562,0.4997 -1.15008,1.992 -0.86556,-0.4998 m -4.05843,7.0294 0.86574,0.4997 -1.15009,1.992 -0.86556,-0.4998 m -4.05842,7.0294 0.86556,0.4998 -1.15003,1.9919 -0.86562,-0.4997 m -4.05848,7.0293 0.86568,0.4998 -1.15003,1.9919 -0.86562,-0.4997 m -4.05842,7.0294 0.86562,0.4997 -1.15008,1.992 -0.86557,-0.4998 m -4.05842,7.0294 0.8655,0.4997 -1.14996,1.992 -0.86563,-0.4997 m -4.058648,7.0298 0.865618,0.4997 -1.150078,1.992 -0.86568,-0.4998 m -4.05791,7.0297 0.86516,0.4995 -1.15002,1.9919 -0.86516,-0.4995 m -4.05843,7.0294 0.86516,0.4995 -1.15014,1.9919 -0.86516,-0.4995 m -4.058312,7.0294 0.86516,0.4995 -1.15008,1.992 -0.86516,-0.4995 m -4.06113,7.0276 0.8651,0.4996 -1.03582,1.7941 c -0.10479,0.2115 -0.0966,0.1112 -0.29841,0.091 -0.29283,-0.029 -0.4982,-0.044 -0.59102,0.1445 -0.45853,0.9338 0.71804,2.5851 1.37257,2.4313 0.19522,-0.046 0.2284,-0.2398 0.29441,-0.4494 0.072,-0.2288 0.33167,-0.1964 0.33167,-0.1964 l 2.07817,10e-5 v 1 h 8.116742 v -1 l 2.3001,-10e-5 v 1 l 8.116798,10e-5 v -1 l 2.3001,-10e-5 v 1 l 8.11737,10e-5 -8e-5,-0.9999 2.30019,-2e-4 v 1 l 8.11679,-5e-4 -8e-5,-0.9993 2.30019,-2e-4 v 0.9996 h 8.11685 v -0.9996 l 2.3001,10e-5 v 0.9994 h 8.11686 v -0.9994 l 2.3001,-10e-5 -8e-5,0.9997 8.11688,-2e-4 v -0.9994 l 2.3001,-10e-5 -8e-5,0.9997 8.11693,-1e-4 v -0.9996 l 2.30003,2e-4 8e-5,0.9993 h 8.116848 v -0.9994 l 2.30011,-10e-5 v 0.9996 h 8.11673 l 6e-5,-0.9995 2.30011,-10e-5 -6e-5,0.9997 8.11737,-1e-4 -3e-5,-0.9994 2.3002,-2e-4 -6e-5,0.9997 8.116762,-5e-4 3e-5,-0.999 h 2.30016 l 6e-5,0.9989 h 8.11674 v -0.999 l 2.30011,10e-5 v 0.999 h 8.11685 v -0.999 h 2.30005 v 0.999 h 8.11685 v -0.999 h 2.07765 c 0.2583,0.092 0.27352,0.125 0.42283,0.3958 0.091,0.1575 0.0929,0.2509 0.38642,0.2347 0.70964,-0.039 1.71704,-1.6384 1.33126,-2.307 -0.12494,-0.2174 -0.25869,-0.1843 -0.3713,-0.1879 -0.19942,-0.01 -0.39967,0.01 -0.57995,-0.1519 l -1.03903,-1.7999 0.86602,-0.5 -4.05842,-7.0294 -0.86617,0.5 -1.15008,-1.992 0.86603,-0.5 -4.05823,-7.0293 -0.86603,0.5 -1.15022,-1.992 0.86603,-0.5 -4.05852,-7.0298 -0.86603,0.5 -1.15022,-1.992 0.86603,-0.5 -4.05883,-7.0291 -0.86543,0.4998 -1.15022,-1.992 0.86576,-0.4997 -4.05856,-7.0294 -0.86562,0.4997 -1.14989,-1.9919 0.86542,-0.4998 -4.05842,-7.0294 -0.86543,0.4998 -1.15022,-1.992 0.86576,-0.4997 -4.05842,-7.0294 -0.865652,0.4999 -1.15014,-1.9921 0.86568,-0.4998 -4.05834,-7.0293 -0.86577,0.4997 -1.15002,-1.9919 0.86556,-0.4998 -4.05841,-7.0294 -0.86544,0.4998 -1.15022,-1.992 0.86563,-0.4997 -4.05843,-7.0294 -0.86542,0.4998 -1.15017,-1.9919 0.86571,-0.4998 -4.05886,-7.0299 -0.86556,0.4998 -1.15008,-1.992 0.86576,-0.4997 -4.05892,-7.0292 -0.86516,0.4995 -1.14999,-1.9919 0.86516,-0.4995 -4.05857,-7.0294 -0.86516,0.4995 -1.14988,-1.9919 0.86516,-0.4995 -4.05857,-7.0294 -0.86516,0.4995 -1.150018,-1.9919 0.865208,-0.4996 -4.058478,-7.0293 -0.86516,0.4995 -1.06472,-1.8446 c 0,0 -0.0818,-0.1419 0.16691,-0.289 0.33042,-0.2524 0.34838,-0.6064 -0.20283,-0.7293 -0.94813,-0.2114 -1.56824,-0.061 -2.21997,0.069 -0.42973,0.2831 0.0619,0.5545 0.0619,0.5545 0.147,0.135 -0.0199,0.252 -0.11355,0.5038 l -1.00349,1.7381 -0.86615,-0.5 m 1.53766,2.7174 c 0.0549,-0.095 0.1751,-0.1633 0.32111,-0.1624 l 2.40328,2e-4 c 0.14549,-4e-4 0.26892,0.066 0.32117,0.1621 0.0174,0.032 0.0271,0.067 0.0265,0.104 l 1.2e-4,7.2852 c -6.1e-4,0.037 -0.0104,0.072 -0.0266,0.104 -0.0548,0.095 -0.17686,0.1623 -0.3212,0.1624 l 5.7e-4,-8e-4 -2.40437,3e-4 c -0.19314,10e-5 -0.34836,-0.1183 -0.34825,-0.2659 l 4.6e-4,-7.285 c 5.6e-4,-0.037 0.009,-0.072 0.0266,-0.104 z m -75.42868,130.5983 4.6e-4,-8e-4 c 0.0179,-0.031 0.0439,-0.056 0.0762,-0.074 l 6.309112,-3.6433 c 0.12818,-0.074 0.30796,0 0.40434,0.169 l 1.2021,2.0819 c 0.0977,0.1676 0.0715,0.3624 -0.0562,0.4354 l -6.415862,3.6568 c -0.10681,0.015 -0.22641,-0.058 -0.29852,-0.1839 l -1.2021,-2.0819 -2.3e-4,-8e-4 c -0.0721,-0.1251 -0.0738,-0.2638 -0.0195,-0.3579 z"
         inkscape:connector-curvature="0"
         sodipodi:nodetypes="cccccccccccccccccccccccccccccccccccccccccccccccccccccccccccccccccccccccccssssccccccccccccccccccccccccccccccccccccccccccccccccccccccccccccccsccscccccccccccccccccccccccccccccccccccccccccccccccccccccccccccccccsccccccccccccccccccccsccccccccccc" />
    </g>
  </g>
</svg>
